<svg width="221" height="85" viewBox="0 0 221 85" fill="none" xmlns="http://www.w3.org/2000/svg">
<path d="M52.1823 13.07C52.0423 13.07 51.8923 13.1 51.7323 13.16C51.5723 13.22 51.4923 13.3 51.4923 13.4V34.1C51.4923 34.2 51.5623 34.28 51.7023 34.34C51.8623 34.4 52.0123 34.43 52.1523 34.43V35H46.8723V34.43C47.3523 34.43 47.5023 34.3 47.3223 34.04L36.6723 19.34V34.1C36.6723 34.2 36.7523 34.28 36.9123 34.34C37.0723 34.4 37.2323 34.43 37.3923 34.43V35H31.9023V34.43C32.0623 34.43 32.2223 34.4 32.3823 34.34C32.5423 34.28 32.6223 34.2 32.6223 34.1V13.4C32.6223 13.3 32.5423 13.22 32.3823 13.16C32.2423 13.1 32.1023 13.07 31.9623 13.07V12.5H37.3923V13.07C36.9123 13.07 36.7623 13.2 36.9423 13.46L47.8923 28.64L47.5023 13.4C47.5023 13.3 47.4123 13.22 47.2323 13.16C47.0723 13.1 46.9223 13.07 46.7823 13.07V12.5H52.1823V13.07ZM66.5934 35.48C64.2734 35.48 62.1934 34.95 60.3534 33.89C58.5334 32.81 57.1134 31.39 56.0934 29.63C55.0934 27.85 54.5934 25.97 54.5934 23.99C54.5934 21.99 55.0734 20.07 56.0334 18.23C56.9934 16.37 58.3834 14.86 60.2034 13.7C62.0234 12.54 64.1534 11.96 66.5934 11.96C68.9734 11.96 71.0634 12.51 72.8634 13.61C74.6634 14.71 76.0434 16.18 77.0034 18.02C77.9634 19.84 78.4434 21.83 78.4434 23.99C78.4434 25.91 77.9634 27.76 77.0034 29.54C76.0634 31.3 74.6934 32.73 72.8934 33.83C71.0934 34.93 68.9934 35.48 66.5934 35.48ZM66.6234 31.52C68.1234 31.52 69.4634 31.21 70.6434 30.59C71.8434 29.95 72.7734 29.06 73.4334 27.92C74.1134 26.76 74.4534 25.45 74.4534 23.99C74.4534 22.45 74.1334 21.07 73.4934 19.85C72.8534 18.63 71.9334 17.67 70.7334 16.97C69.5334 16.25 68.1134 15.89 66.4734 15.89C64.9734 15.89 63.6334 16.25 62.4534 16.97C61.2934 17.67 60.3834 18.64 59.7234 19.88C59.0634 21.12 58.7334 22.49 58.7334 23.99C58.7334 25.55 59.1134 26.9 59.8734 28.04C60.6534 29.18 61.6434 30.05 62.8434 30.65C64.0634 31.23 65.3234 31.52 66.6234 31.52ZM98.3774 34.22C98.4574 34.36 98.7274 34.43 99.1874 34.43V35H93.0974V34.43C93.3774 34.43 93.5674 34.38 93.6674 34.28C93.7674 34.18 93.7774 34.08 93.6974 33.98L88.6574 25.49H85.5674V34.1C85.5674 34.2 85.6474 34.28 85.8074 34.34C85.9674 34.4 86.1174 34.43 86.2574 34.43V35H80.8574V34.43C80.9974 34.43 81.1474 34.4 81.3074 34.34C81.4674 34.28 81.5474 34.2 81.5474 34.1V13.4C81.5474 13.3 81.4674 13.22 81.3074 13.16C81.1674 13.1 81.0274 13.07 80.8874 13.07V12.5H90.0374C92.6774 12.5 94.6674 13.1 96.0074 14.3C97.3674 15.48 98.0474 17.01 98.0474 18.89C98.0474 20.63 97.5674 22.03 96.6074 23.09C95.6674 24.15 94.4474 24.86 92.9474 25.22L98.3774 34.22ZM85.5674 15.98V21.86H90.4874C91.7274 21.86 92.6574 21.57 93.2774 20.99C93.8974 20.41 94.2074 19.71 94.2074 18.89C94.2074 18.09 93.8574 17.41 93.1574 16.85C92.4574 16.27 91.5974 15.98 90.5774 15.98H85.5674ZM127.287 34.1C127.287 34.2 127.357 34.28 127.497 34.34C127.657 34.4 127.817 34.43 127.977 34.43V35H122.727V34.43C122.887 34.43 123.037 34.4 123.177 34.34C123.337 34.28 123.417 34.2 123.417 34.1V16.91L114.627 36.14L105.867 16.85V34.1C105.867 34.2 105.937 34.28 106.077 34.34C106.237 34.4 106.397 34.43 106.557 34.43V35H101.277V34.43C101.437 34.43 101.587 34.4 101.727 34.34C101.887 34.28 101.967 34.2 101.967 34.1V13.4C101.967 13.3 101.887 13.22 101.727 13.16C101.587 13.1 101.447 13.07 101.307 13.07V12.5H109.047V13.07C108.807 13.07 108.647 13.13 108.567 13.25C108.507 13.35 108.507 13.47 108.567 13.61L114.657 27.77L120.837 13.61C120.877 13.49 120.817 13.37 120.657 13.25C120.497 13.13 120.297 13.07 120.057 13.07V12.5H127.947V13.07C127.807 13.07 127.657 13.1 127.497 13.16C127.357 13.22 127.287 13.3 127.287 13.4V34.1ZM140.134 35.57C138.414 35.57 136.814 35.17 135.334 34.37C133.854 33.55 132.424 32.43 131.044 31.01C131.004 30.97 130.954 30.95 130.894 30.95C130.714 30.95 130.514 31.06 130.294 31.28L129.904 30.86L134.074 26.93L134.464 27.35C134.344 27.45 134.234 27.59 134.134 27.77C134.034 27.95 134.014 28.08 134.074 28.16C135.934 30.52 137.964 31.7 140.164 31.7C140.924 31.7 141.604 31.55 142.204 31.25C142.824 30.95 143.304 30.57 143.644 30.11C143.984 29.63 144.154 29.14 144.154 28.64C144.154 27.46 143.124 26.49 141.064 25.73L137.374 24.35C135.894 23.81 134.734 23.07 133.894 22.13C133.074 21.19 132.664 20.06 132.664 18.74C132.664 17.44 132.964 16.31 133.564 15.35C134.184 14.37 135.054 13.62 136.174 13.1C137.294 12.58 138.594 12.32 140.074 12.32C141.474 12.32 142.644 12.54 143.584 12.98C144.544 13.4 145.564 14.05 146.644 14.93C146.664 14.95 146.704 14.96 146.764 14.96C146.864 14.96 146.974 14.93 147.094 14.87C147.234 14.79 147.344 14.71 147.424 14.63L147.814 15.02L144.094 18.68L143.704 18.26C143.804 18.16 143.874 18.05 143.914 17.93C143.974 17.79 143.964 17.69 143.884 17.63C142.584 16.59 141.294 16.07 140.014 16.07C138.994 16.07 138.184 16.31 137.584 16.79C136.984 17.25 136.684 17.84 136.684 18.56C136.684 19.2 136.844 19.69 137.164 20.03C137.504 20.37 138.014 20.66 138.694 20.9L142.324 22.22C143.584 22.68 144.634 23.17 145.474 23.69C146.314 24.19 146.984 24.86 147.484 25.7C147.984 26.52 148.234 27.55 148.234 28.79C148.234 29.99 147.914 31.11 147.274 32.15C146.654 33.17 145.724 34 144.484 34.64C143.264 35.26 141.814 35.57 140.134 35.57ZM167.047 30.8V35.6H166.477C166.477 35.46 166.447 35.32 166.387 35.18C166.327 35.04 166.247 34.97 166.147 34.97H150.877V34.4C151.017 34.4 151.157 34.37 151.297 34.31C151.457 34.25 151.537 34.17 151.537 34.07V13.37C151.537 13.27 151.457 13.19 151.297 13.13C151.157 13.07 151.017 13.04 150.877 13.04V12.47H165.367C165.467 12.47 165.547 12.4 165.607 12.26C165.667 12.12 165.697 11.98 165.697 11.84H166.267V16.64H165.697C165.697 16.5 165.667 16.36 165.607 16.22C165.547 16.08 165.467 16.01 165.367 16.01H155.407V21.29H163.897C163.997 21.29 164.077 21.22 164.137 21.08C164.197 20.94 164.227 20.8 164.227 20.66H164.797V25.46H164.227C164.227 25.32 164.197 25.18 164.137 25.04C164.077 24.9 163.997 24.83 163.897 24.83H155.407V31.43H166.147C166.247 31.43 166.327 31.36 166.387 31.22C166.447 31.08 166.477 30.94 166.477 30.8H167.047ZM180.288 35.3C178.148 35.3 176.178 34.8 174.378 33.8C172.578 32.78 171.158 31.38 170.118 29.6C169.078 27.8 168.558 25.8 168.558 23.6C168.558 21.28 169.078 19.23 170.118 17.45C171.158 15.67 172.558 14.3 174.318 13.34C176.078 12.36 178.008 11.87 180.108 11.87C182.128 11.87 183.828 12.23 185.208 12.95C186.608 13.65 187.928 14.64 189.168 15.92C189.208 15.96 189.268 15.98 189.348 15.98C189.468 15.98 189.678 15.89 189.978 15.71L190.338 16.16L186.198 19.43L185.838 18.98C185.958 18.9 186.048 18.8 186.108 18.68C186.188 18.54 186.188 18.44 186.108 18.38C185.268 17.56 184.388 16.94 183.468 16.52C182.568 16.08 181.468 15.86 180.168 15.86C178.808 15.86 177.558 16.2 176.418 16.88C175.278 17.54 174.378 18.46 173.718 19.64C173.058 20.82 172.728 22.14 172.728 23.6C172.728 25 173.078 26.28 173.778 27.44C174.478 28.58 175.408 29.48 176.568 30.14C177.728 30.8 178.968 31.13 180.288 31.13C181.528 31.13 182.588 30.92 183.468 30.5C184.348 30.06 185.178 29.41 185.958 28.55L186.018 28.43C186.018 28.33 185.968 28.22 185.868 28.1C185.788 27.96 185.698 27.86 185.598 27.8L185.988 27.38L190.458 31.13L190.098 31.58C189.978 31.48 189.828 31.39 189.648 31.31C189.468 31.23 189.348 31.23 189.288 31.31C188.028 32.67 186.708 33.68 185.328 34.34C183.948 34.98 182.268 35.3 180.288 35.3Z" fill="white"/>
<path d="M17.4135 54.371C17.4435 54.461 17.5635 54.506 17.7735 54.506V54.791H14.7285V54.506C14.8585 54.506 14.9485 54.476 14.9985 54.416C15.0485 54.356 15.0585 54.296 15.0285 54.236L14.2035 52.121H9.31346L8.48846 54.236L8.47346 54.281C8.47346 54.341 8.49846 54.396 8.54846 54.446C8.60846 54.486 8.68346 54.506 8.77346 54.506V54.791H5.81846V54.506C6.01846 54.506 6.13846 54.461 6.17846 54.371L10.3485 44.231C10.3785 44.171 10.3935 44.116 10.3935 44.066C10.3935 43.976 10.3535 43.916 10.2735 43.886C10.1935 43.846 10.1085 43.826 10.0185 43.826V43.541H13.5135V43.826C13.4235 43.826 13.3385 43.846 13.2585 43.886C13.1785 43.916 13.1385 43.976 13.1385 44.066C13.1385 44.116 13.1535 44.171 13.1835 44.231L17.4135 54.371ZM11.7585 45.881L9.98846 50.396H13.5285L11.7585 45.881ZM26.2433 55.106C25.6033 55.106 25.0083 54.946 24.4583 54.626C23.9083 54.306 23.4683 53.871 23.1383 53.321C22.8183 52.771 22.6583 52.171 22.6583 51.521C22.6583 50.751 22.8183 50.076 23.1383 49.496C23.4683 48.906 23.9083 48.456 24.4583 48.146C25.0083 47.826 25.6133 47.666 26.2733 47.666C26.7433 47.666 27.1433 47.721 27.4733 47.831C27.8133 47.941 28.0833 48.076 28.2833 48.236C28.4933 48.386 28.7533 48.601 29.0633 48.881C29.0833 48.901 29.1083 48.911 29.1383 48.911C29.1783 48.911 29.2233 48.896 29.2733 48.866C29.3333 48.836 29.3783 48.806 29.4083 48.776L29.6033 48.986L27.9833 50.486L27.7883 50.276C27.8383 50.236 27.8783 50.181 27.9083 50.111C27.9483 50.031 27.9533 49.971 27.9233 49.931C27.5633 49.491 27.0683 49.271 26.4383 49.271C25.8683 49.271 25.3883 49.461 24.9983 49.841C24.6183 50.221 24.4283 50.716 24.4283 51.326C24.4283 51.956 24.6133 52.461 24.9833 52.841C25.3533 53.221 25.8383 53.411 26.4383 53.411C26.7383 53.411 26.9833 53.376 27.1733 53.306C27.3633 53.226 27.5783 53.081 27.8183 52.871C27.8383 52.851 27.8483 52.826 27.8483 52.796C27.8483 52.736 27.8133 52.671 27.7433 52.601L27.9233 52.376L29.5433 53.726L29.3633 53.936C29.2033 53.846 29.0933 53.831 29.0333 53.891C28.6633 54.301 28.2733 54.606 27.8633 54.806C27.4633 55.006 26.9233 55.106 26.2433 55.106ZM38.7037 48.176C38.4937 48.176 38.3637 48.216 38.3137 48.296L33.0637 58.631C33.0537 58.641 33.0487 58.656 33.0487 58.676C33.0487 58.736 33.0837 58.786 33.1537 58.826C33.2237 58.866 33.3137 58.886 33.4237 58.886V59.171H30.6037V58.886C30.8137 58.886 30.9437 58.846 30.9937 58.766L33.4387 53.951L30.3637 48.281C30.3237 48.211 30.1937 48.176 29.9737 48.176V47.891H32.7487V48.176C32.6287 48.176 32.5537 48.201 32.5237 48.251C32.5037 48.301 32.5137 48.356 32.5537 48.416L34.4587 51.941L36.2437 48.431C36.2537 48.421 36.2587 48.406 36.2587 48.386C36.2587 48.326 36.2237 48.276 36.1537 48.236C36.0837 48.196 35.9937 48.176 35.8837 48.176V47.891H38.7037V48.176ZM43.9172 47.711C44.6272 47.711 45.2722 47.866 45.8522 48.176C46.4322 48.476 46.8872 48.901 47.2172 49.451C47.5572 50.001 47.7272 50.636 47.7272 51.356C47.7272 52.086 47.5622 52.726 47.2322 53.276C46.9022 53.816 46.4472 54.236 45.8672 54.536C45.2972 54.836 44.6472 54.986 43.9172 54.986C43.0772 54.986 42.3472 54.736 41.7272 54.236V54.791H39.5372V54.506C39.6072 54.506 39.6772 54.491 39.7472 54.461C39.8272 54.431 39.8672 54.391 39.8672 54.341V43.991C39.8672 43.941 39.8272 43.901 39.7472 43.871C39.6772 43.841 39.6072 43.826 39.5372 43.826V43.541H42.0572V43.826C41.9872 43.826 41.9122 43.841 41.8322 43.871C41.7622 43.901 41.7272 43.941 41.7272 43.991V48.416C42.3272 47.946 43.0572 47.711 43.9172 47.711ZM43.7972 53.396C44.3972 53.396 44.8972 53.211 45.2972 52.841C45.7072 52.471 45.9122 51.976 45.9122 51.356C45.9122 50.776 45.7122 50.296 45.3122 49.916C44.9122 49.526 44.4072 49.331 43.7972 49.331C43.1772 49.331 42.6672 49.526 42.2672 49.916C41.8672 50.306 41.6672 50.801 41.6672 51.401C41.6672 51.751 41.7572 52.081 41.9372 52.391C42.1272 52.691 42.3872 52.936 42.7172 53.126C43.0472 53.306 43.4072 53.396 43.7972 53.396ZM52.4365 47.576C53.2065 47.576 53.8715 47.746 54.4315 48.086C54.9915 48.416 55.4165 48.866 55.7065 49.436C55.9965 50.006 56.1415 50.636 56.1415 51.326C56.1415 51.536 56.1265 51.746 56.0965 51.956H50.6065C50.6465 52.436 50.8565 52.811 51.2365 53.081C51.6165 53.351 52.0715 53.486 52.6015 53.486C52.9615 53.486 53.2615 53.436 53.5015 53.336C53.7515 53.236 53.9715 53.086 54.1615 52.886C54.1815 52.846 54.1915 52.821 54.1915 52.811C54.1915 52.771 54.1765 52.731 54.1465 52.691C54.1165 52.641 54.0865 52.606 54.0565 52.586L54.2365 52.361L55.9015 53.666L55.7365 53.891C55.5865 53.801 55.4815 53.791 55.4215 53.861C54.7215 54.701 53.7815 55.121 52.6015 55.121C51.8415 55.121 51.1715 54.956 50.5915 54.626C50.0115 54.286 49.5615 53.836 49.2415 53.276C48.9315 52.706 48.7765 52.076 48.7765 51.386C48.7765 50.656 48.9315 50.001 49.2415 49.421C49.5515 48.841 49.9815 48.391 50.5315 48.071C51.0915 47.741 51.7265 47.576 52.4365 47.576ZM54.3415 50.561C54.3015 50.151 54.0915 49.806 53.7115 49.526C53.3415 49.236 52.9215 49.091 52.4515 49.091C51.9815 49.091 51.5765 49.236 51.2365 49.526C50.8965 49.806 50.6915 50.151 50.6215 50.561H54.3415ZM61.8964 47.441V49.856H61.6114C61.6114 49.786 61.5964 49.706 61.5664 49.616C61.5364 49.526 61.4964 49.476 61.4464 49.466H61.3414C61.0314 49.466 60.7164 49.556 60.3964 49.736C60.0864 49.906 59.8264 50.136 59.6164 50.426C59.4164 50.706 59.3164 51.006 59.3164 51.326V54.341C59.3164 54.391 59.3514 54.431 59.4214 54.461C59.5014 54.491 59.5764 54.506 59.6464 54.506V54.791H57.1264V54.506C57.1964 54.506 57.2664 54.491 57.3364 54.461C57.4164 54.431 57.4564 54.391 57.4564 54.341V48.341C57.4564 48.291 57.4164 48.251 57.3364 48.221C57.2664 48.191 57.1964 48.176 57.1264 48.176V47.891H59.3164V48.536C59.5864 48.286 59.9114 48.086 60.2914 47.936C60.6714 47.786 61.0514 47.711 61.4314 47.711H61.4464H61.4614C61.5114 47.711 61.5464 47.681 61.5664 47.621C61.5964 47.561 61.6114 47.501 61.6114 47.441H61.8964ZM69.9276 55.016C69.4176 55.016 68.9226 54.911 68.4426 54.701C67.9726 54.491 67.4976 54.191 67.0176 53.801C66.9976 53.781 66.9726 53.771 66.9426 53.771C66.8626 53.771 66.7776 53.816 66.6876 53.906L66.4776 53.726L67.9776 52.016L68.1876 52.211C68.1476 52.261 68.1126 52.321 68.0826 52.391C68.0626 52.461 68.0726 52.516 68.1126 52.556C68.4426 52.856 68.7476 53.081 69.0276 53.231C69.3176 53.371 69.6176 53.441 69.9276 53.441C70.6976 53.441 71.0826 53.186 71.0826 52.676C71.0826 52.446 70.9626 52.271 70.7226 52.151C70.4926 52.021 70.1026 51.881 69.5526 51.731C68.8426 51.541 68.3276 51.296 68.0076 50.996C67.6876 50.686 67.5276 50.266 67.5276 49.736C67.5276 49.106 67.7326 48.596 68.1426 48.206C68.5526 47.806 69.1126 47.606 69.8226 47.606C70.1826 47.606 70.5076 47.661 70.7976 47.771C71.0876 47.881 71.4376 48.076 71.8476 48.356C71.8576 48.366 71.8776 48.371 71.9076 48.371C71.9576 48.371 72.0076 48.356 72.0576 48.326C72.1076 48.296 72.1426 48.266 72.1626 48.236L72.3876 48.431L71.0376 49.961L70.8276 49.781C70.8676 49.741 70.8926 49.691 70.9026 49.631C70.9226 49.561 70.9126 49.506 70.8726 49.466C70.6926 49.326 70.5176 49.221 70.3476 49.151C70.1876 49.081 70.0076 49.046 69.8076 49.046C69.5976 49.046 69.4326 49.086 69.3126 49.166C69.1926 49.246 69.1326 49.366 69.1326 49.526C69.1326 49.656 69.1676 49.761 69.2376 49.841C69.3076 49.921 69.4326 50.001 69.6126 50.081C69.8026 50.161 70.0876 50.261 70.4676 50.381C71.1676 50.591 71.7176 50.886 72.1176 51.266C72.5176 51.636 72.7176 52.096 72.7176 52.646C72.7176 53.456 72.4626 54.056 71.9526 54.446C71.4426 54.826 70.7676 55.016 69.9276 55.016ZM77.2802 47.576C78.0502 47.576 78.7152 47.746 79.2752 48.086C79.8352 48.416 80.2602 48.866 80.5502 49.436C80.8402 50.006 80.9852 50.636 80.9852 51.326C80.9852 51.536 80.9702 51.746 80.9402 51.956H75.4502C75.4902 52.436 75.7002 52.811 76.0802 53.081C76.4602 53.351 76.9152 53.486 77.4452 53.486C77.8052 53.486 78.1052 53.436 78.3452 53.336C78.5952 53.236 78.8152 53.086 79.0052 52.886C79.0252 52.846 79.0352 52.821 79.0352 52.811C79.0352 52.771 79.0202 52.731 78.9902 52.691C78.9602 52.641 78.9302 52.606 78.9002 52.586L79.0802 52.361L80.7452 53.666L80.5802 53.891C80.4302 53.801 80.3252 53.791 80.2652 53.861C79.5652 54.701 78.6252 55.121 77.4452 55.121C76.6852 55.121 76.0152 54.956 75.4352 54.626C74.8552 54.286 74.4052 53.836 74.0852 53.276C73.7752 52.706 73.6202 52.076 73.6202 51.386C73.6202 50.656 73.7752 50.001 74.0852 49.421C74.3952 48.841 74.8252 48.391 75.3752 48.071C75.9352 47.741 76.5702 47.576 77.2802 47.576ZM79.1852 50.561C79.1452 50.151 78.9352 49.806 78.5552 49.526C78.1852 49.236 77.7652 49.091 77.2952 49.091C76.8252 49.091 76.4202 49.236 76.0802 49.526C75.7402 49.806 75.5352 50.151 75.4652 50.561H79.1852ZM85.5402 55.106C84.9002 55.106 84.3052 54.946 83.7552 54.626C83.2052 54.306 82.7652 53.871 82.4352 53.321C82.1152 52.771 81.9552 52.171 81.9552 51.521C81.9552 50.751 82.1152 50.076 82.4352 49.496C82.7652 48.906 83.2052 48.456 83.7552 48.146C84.3052 47.826 84.9102 47.666 85.5702 47.666C86.0402 47.666 86.4402 47.721 86.7702 47.831C87.1102 47.941 87.3802 48.076 87.5802 48.236C87.7902 48.386 88.0502 48.601 88.3602 48.881C88.3802 48.901 88.4052 48.911 88.4352 48.911C88.4752 48.911 88.5202 48.896 88.5702 48.866C88.6302 48.836 88.6752 48.806 88.7052 48.776L88.9002 48.986L87.2802 50.486L87.0852 50.276C87.1352 50.236 87.1752 50.181 87.2052 50.111C87.2452 50.031 87.2502 49.971 87.2202 49.931C86.8602 49.491 86.3652 49.271 85.7352 49.271C85.1652 49.271 84.6852 49.461 84.2952 49.841C83.9152 50.221 83.7252 50.716 83.7252 51.326C83.7252 51.956 83.9102 52.461 84.2802 52.841C84.6502 53.221 85.1352 53.411 85.7352 53.411C86.0352 53.411 86.2802 53.376 86.4702 53.306C86.6602 53.226 86.8752 53.081 87.1152 52.871C87.1352 52.851 87.1452 52.826 87.1452 52.796C87.1452 52.736 87.1102 52.671 87.0402 52.601L87.2202 52.376L88.8402 53.726L88.6602 53.936C88.5002 53.846 88.3902 53.831 88.3302 53.891C87.9602 54.301 87.5702 54.606 87.1602 54.806C86.7602 55.006 86.2202 55.106 85.5402 55.106ZM96.5606 54.341C96.5606 54.391 96.5956 54.431 96.6656 54.461C96.7456 54.491 96.8206 54.506 96.8906 54.506V54.791H95.0306V54.236C94.5006 54.696 93.8856 54.926 93.1856 54.926C92.1356 54.926 91.3656 54.626 90.8756 54.026C90.3856 53.416 90.1406 52.656 90.1406 51.746V48.341C90.1406 48.291 90.1006 48.251 90.0206 48.221C89.9506 48.191 89.8806 48.176 89.8106 48.176V47.891H92.3606V48.176C92.2906 48.176 92.2156 48.191 92.1356 48.221C92.0656 48.251 92.0306 48.291 92.0306 48.341V51.626C92.0306 52.056 92.1406 52.421 92.3606 52.721C92.5806 53.011 92.9206 53.156 93.3806 53.156C93.8206 53.156 94.1506 53.021 94.3706 52.751C94.5906 52.481 94.7006 52.136 94.7006 51.716V48.341C94.7006 48.291 94.6606 48.251 94.5806 48.221C94.5106 48.191 94.4406 48.176 94.3706 48.176V47.891H96.8906V48.176C96.8206 48.176 96.7456 48.191 96.6656 48.221C96.5956 48.251 96.5606 48.291 96.5606 48.341V54.341ZM99.7924 46.631C99.4724 46.631 99.1974 46.521 98.9674 46.301C98.7474 46.081 98.6374 45.806 98.6374 45.476C98.6374 45.166 98.7474 44.901 98.9674 44.681C99.1974 44.451 99.4724 44.336 99.7924 44.336C100.112 44.336 100.382 44.451 100.602 44.681C100.822 44.901 100.932 45.166 100.932 45.476C100.932 45.806 100.822 46.081 100.602 46.301C100.382 46.521 100.112 46.631 99.7924 46.631ZM98.8174 48.341C98.8174 48.291 98.7774 48.251 98.6974 48.221C98.6274 48.191 98.5574 48.176 98.4874 48.176V47.891H101.067V48.176C100.997 48.176 100.922 48.191 100.842 48.221C100.772 48.251 100.737 48.291 100.737 48.341V54.341C100.737 54.391 100.772 54.431 100.842 54.461C100.922 54.491 100.997 54.506 101.067 54.506V54.791H98.4874V54.506C98.5574 54.506 98.6274 54.491 98.6974 54.461C98.7774 54.431 98.8174 54.391 98.8174 54.341V48.341ZM107.277 47.441V49.856H106.992C106.992 49.786 106.977 49.706 106.947 49.616C106.917 49.526 106.877 49.476 106.827 49.466H106.722C106.412 49.466 106.097 49.556 105.777 49.736C105.467 49.906 105.207 50.136 104.997 50.426C104.797 50.706 104.697 51.006 104.697 51.326V54.341C104.697 54.391 104.732 54.431 104.802 54.461C104.882 54.491 104.957 54.506 105.027 54.506V54.791H102.507V54.506C102.577 54.506 102.647 54.491 102.717 54.461C102.797 54.431 102.837 54.391 102.837 54.341V48.341C102.837 48.291 102.797 48.251 102.717 48.221C102.647 48.191 102.577 48.176 102.507 48.176V47.891H104.697V48.536C104.967 48.286 105.292 48.086 105.672 47.936C106.052 47.786 106.432 47.711 106.812 47.711H106.827H106.842C106.892 47.711 106.927 47.681 106.947 47.621C106.977 47.561 106.992 47.501 106.992 47.441H107.277ZM112.214 47.591V49.871H111.929C111.929 49.801 111.914 49.736 111.884 49.676C111.854 49.606 111.814 49.571 111.764 49.571H110.789V54.341C110.789 54.391 110.824 54.431 110.894 54.461C110.964 54.491 111.034 54.506 111.104 54.506V54.791H108.659V54.506C108.729 54.506 108.799 54.491 108.869 54.461C108.939 54.431 108.974 54.391 108.974 54.341V49.571H108.254C108.204 49.571 108.164 49.606 108.134 49.676C108.104 49.736 108.089 49.801 108.089 49.871H107.804V47.591H108.089C108.089 47.661 108.104 47.731 108.134 47.801C108.164 47.861 108.204 47.891 108.254 47.891H108.974V46.136C108.974 46.086 108.939 46.046 108.869 46.016C108.799 45.986 108.729 45.971 108.659 45.971V45.686H111.104V45.971C111.034 45.971 110.964 45.986 110.894 46.016C110.824 46.046 110.789 46.086 110.789 46.136V47.891H111.764C111.814 47.891 111.854 47.861 111.884 47.801C111.914 47.731 111.929 47.661 111.929 47.591H112.214ZM121.394 48.176C121.184 48.176 121.054 48.216 121.004 48.296L115.754 58.631C115.744 58.641 115.739 58.656 115.739 58.676C115.739 58.736 115.774 58.786 115.844 58.826C115.914 58.866 116.004 58.886 116.114 58.886V59.171H113.294V58.886C113.504 58.886 113.634 58.846 113.684 58.766L116.129 53.951L113.054 48.281C113.014 48.211 112.884 48.176 112.664 48.176V47.891H115.439V48.176C115.319 48.176 115.244 48.201 115.214 48.251C115.194 48.301 115.204 48.356 115.244 48.416L117.149 51.941L118.934 48.431C118.944 48.421 118.949 48.406 118.949 48.386C118.949 48.326 118.914 48.276 118.844 48.236C118.774 48.196 118.684 48.176 118.574 48.176V47.891H121.394V48.176ZM129.342 55.016C128.832 55.016 128.337 54.911 127.857 54.701C127.387 54.491 126.912 54.191 126.432 53.801C126.412 53.781 126.387 53.771 126.357 53.771C126.277 53.771 126.192 53.816 126.102 53.906L125.892 53.726L127.392 52.016L127.602 52.211C127.562 52.261 127.527 52.321 127.497 52.391C127.477 52.461 127.487 52.516 127.527 52.556C127.857 52.856 128.162 53.081 128.442 53.231C128.732 53.371 129.032 53.441 129.342 53.441C130.112 53.441 130.497 53.186 130.497 52.676C130.497 52.446 130.377 52.271 130.137 52.151C129.907 52.021 129.517 51.881 128.967 51.731C128.257 51.541 127.742 51.296 127.422 50.996C127.102 50.686 126.942 50.266 126.942 49.736C126.942 49.106 127.147 48.596 127.557 48.206C127.967 47.806 128.527 47.606 129.237 47.606C129.597 47.606 129.922 47.661 130.212 47.771C130.502 47.881 130.852 48.076 131.262 48.356C131.272 48.366 131.292 48.371 131.322 48.371C131.372 48.371 131.422 48.356 131.472 48.326C131.522 48.296 131.557 48.266 131.577 48.236L131.802 48.431L130.452 49.961L130.242 49.781C130.282 49.741 130.307 49.691 130.317 49.631C130.337 49.561 130.327 49.506 130.287 49.466C130.107 49.326 129.932 49.221 129.762 49.151C129.602 49.081 129.422 49.046 129.222 49.046C129.012 49.046 128.847 49.086 128.727 49.166C128.607 49.246 128.547 49.366 128.547 49.526C128.547 49.656 128.582 49.761 128.652 49.841C128.722 49.921 128.847 50.001 129.027 50.081C129.217 50.161 129.502 50.261 129.882 50.381C130.582 50.591 131.132 50.886 131.532 51.266C131.932 51.636 132.132 52.096 132.132 52.646C132.132 53.456 131.877 54.056 131.367 54.446C130.857 54.826 130.182 55.016 129.342 55.016ZM136.784 54.971C136.044 54.971 135.389 54.816 134.819 54.506C134.259 54.186 133.819 53.751 133.499 53.201C133.189 52.651 133.034 52.031 133.034 51.341C133.034 50.661 133.189 50.041 133.499 49.481C133.819 48.921 134.264 48.481 134.834 48.161C135.404 47.831 136.054 47.666 136.784 47.666C137.484 47.666 138.119 47.826 138.689 48.146C139.259 48.456 139.709 48.891 140.039 49.451C140.369 50.001 140.534 50.631 140.534 51.341C140.534 51.961 140.384 52.551 140.084 53.111C139.794 53.661 139.364 54.111 138.794 54.461C138.224 54.801 137.554 54.971 136.784 54.971ZM136.784 53.246C137.374 53.246 137.849 53.076 138.209 52.736C138.579 52.386 138.764 51.936 138.764 51.386C138.764 50.816 138.579 50.346 138.209 49.976C137.849 49.606 137.374 49.421 136.784 49.421C136.234 49.421 135.774 49.606 135.404 49.976C135.034 50.336 134.849 50.791 134.849 51.341C134.849 51.921 135.034 52.386 135.404 52.736C135.774 53.076 136.234 53.246 136.784 53.246ZM145.174 55.106C144.534 55.106 143.939 54.946 143.389 54.626C142.839 54.306 142.399 53.871 142.069 53.321C141.749 52.771 141.589 52.171 141.589 51.521C141.589 50.751 141.749 50.076 142.069 49.496C142.399 48.906 142.839 48.456 143.389 48.146C143.939 47.826 144.544 47.666 145.204 47.666C145.674 47.666 146.074 47.721 146.404 47.831C146.744 47.941 147.014 48.076 147.214 48.236C147.424 48.386 147.684 48.601 147.994 48.881C148.014 48.901 148.039 48.911 148.069 48.911C148.109 48.911 148.154 48.896 148.204 48.866C148.264 48.836 148.309 48.806 148.339 48.776L148.534 48.986L146.914 50.486L146.719 50.276C146.769 50.236 146.809 50.181 146.839 50.111C146.879 50.031 146.884 49.971 146.854 49.931C146.494 49.491 145.999 49.271 145.369 49.271C144.799 49.271 144.319 49.461 143.929 49.841C143.549 50.221 143.359 50.716 143.359 51.326C143.359 51.956 143.544 52.461 143.914 52.841C144.284 53.221 144.769 53.411 145.369 53.411C145.669 53.411 145.914 53.376 146.104 53.306C146.294 53.226 146.509 53.081 146.749 52.871C146.769 52.851 146.779 52.826 146.779 52.796C146.779 52.736 146.744 52.671 146.674 52.601L146.854 52.376L148.474 53.726L148.294 53.936C148.134 53.846 148.024 53.831 147.964 53.891C147.594 54.301 147.204 54.606 146.794 54.806C146.394 55.006 145.854 55.106 145.174 55.106ZM150.959 46.631C150.639 46.631 150.364 46.521 150.134 46.301C149.914 46.081 149.804 45.806 149.804 45.476C149.804 45.166 149.914 44.901 150.134 44.681C150.364 44.451 150.639 44.336 150.959 44.336C151.279 44.336 151.549 44.451 151.769 44.681C151.989 44.901 152.099 45.166 152.099 45.476C152.099 45.806 151.989 46.081 151.769 46.301C151.549 46.521 151.279 46.631 150.959 46.631ZM149.984 48.341C149.984 48.291 149.944 48.251 149.864 48.221C149.794 48.191 149.724 48.176 149.654 48.176V47.891H152.234V48.176C152.164 48.176 152.089 48.191 152.009 48.221C151.939 48.251 151.904 48.291 151.904 48.341V54.341C151.904 54.391 151.939 54.431 152.009 54.461C152.089 54.491 152.164 54.506 152.234 54.506V54.791H149.654V54.506C149.724 54.506 149.794 54.491 149.864 54.461C149.944 54.431 149.984 54.391 149.984 54.341V48.341ZM161.939 48.176C161.869 48.176 161.794 48.191 161.714 48.221C161.644 48.251 161.609 48.291 161.609 48.341V54.341C161.609 54.391 161.644 54.431 161.714 54.461C161.794 54.491 161.869 54.506 161.939 54.506V54.791H159.719V53.966C159.089 54.646 158.294 54.986 157.334 54.986C156.604 54.986 155.959 54.841 155.399 54.551C154.849 54.251 154.419 53.826 154.109 53.276C153.809 52.726 153.659 52.086 153.659 51.356C153.659 50.646 153.824 50.016 154.154 49.466C154.494 48.906 154.944 48.476 155.504 48.176C156.064 47.866 156.674 47.711 157.334 47.711C158.294 47.711 159.089 48.081 159.719 48.821V47.891H161.939V48.176ZM157.559 53.396C157.969 53.396 158.334 53.306 158.654 53.126C158.984 52.936 159.239 52.691 159.419 52.391C159.599 52.081 159.689 51.751 159.689 51.401C159.689 50.801 159.489 50.306 159.089 49.916C158.699 49.526 158.189 49.331 157.559 49.331C156.949 49.331 156.444 49.521 156.044 49.901C155.654 50.281 155.459 50.766 155.459 51.356C155.459 51.976 155.659 52.471 156.059 52.841C156.469 53.211 156.969 53.396 157.559 53.396ZM163.661 43.991C163.661 43.941 163.621 43.901 163.541 43.871C163.471 43.841 163.396 43.826 163.316 43.826V43.541H165.956V43.826C165.876 43.826 165.796 43.841 165.716 43.871C165.646 43.901 165.611 43.941 165.611 43.991V54.341C165.611 54.391 165.646 54.431 165.716 54.461C165.796 54.491 165.876 54.506 165.956 54.506V54.791H163.316V54.506C163.396 54.506 163.471 54.491 163.541 54.461C163.621 54.431 163.661 54.391 163.661 54.341V43.991ZM182.679 54.341C182.679 54.391 182.714 54.431 182.784 54.461C182.864 54.491 182.944 54.506 183.024 54.506V54.791H180.384V54.506C180.464 54.506 180.539 54.491 180.609 54.461C180.689 54.431 180.729 54.391 180.729 54.341V51.221C180.729 49.981 180.319 49.361 179.499 49.361C179.099 49.361 178.789 49.526 178.569 49.856C178.349 50.186 178.239 50.681 178.239 51.341V54.341C178.239 54.391 178.274 54.431 178.344 54.461C178.424 54.491 178.504 54.506 178.584 54.506V54.791H175.959V54.506C176.039 54.506 176.114 54.491 176.184 54.461C176.264 54.431 176.304 54.391 176.304 54.341V51.221C176.304 50.671 176.219 50.226 176.049 49.886C175.879 49.536 175.564 49.361 175.104 49.361C174.744 49.361 174.454 49.496 174.234 49.766C174.024 50.026 173.899 50.421 173.859 50.951V54.341C173.859 54.391 173.899 54.431 173.979 54.461C174.059 54.491 174.134 54.506 174.204 54.506V54.791H171.534V54.506C171.604 54.506 171.679 54.491 171.759 54.461C171.839 54.431 171.879 54.391 171.879 54.341V48.341C171.879 48.291 171.839 48.251 171.759 48.221C171.689 48.191 171.619 48.176 171.549 48.176V47.891H173.859V48.296C174.259 47.926 174.769 47.741 175.389 47.741C175.949 47.741 176.429 47.851 176.829 48.071C177.239 48.281 177.559 48.576 177.789 48.956C177.969 48.586 178.244 48.291 178.614 48.071C178.994 47.851 179.419 47.741 179.889 47.741C180.829 47.741 181.529 48.021 181.989 48.581C182.449 49.141 182.679 49.866 182.679 50.756V54.341ZM187.905 47.576C188.675 47.576 189.34 47.746 189.9 48.086C190.46 48.416 190.885 48.866 191.175 49.436C191.465 50.006 191.61 50.636 191.61 51.326C191.61 51.536 191.595 51.746 191.565 51.956H186.075C186.115 52.436 186.325 52.811 186.705 53.081C187.085 53.351 187.54 53.486 188.07 53.486C188.43 53.486 188.73 53.436 188.97 53.336C189.22 53.236 189.44 53.086 189.63 52.886C189.65 52.846 189.66 52.821 189.66 52.811C189.66 52.771 189.645 52.731 189.615 52.691C189.585 52.641 189.555 52.606 189.525 52.586L189.705 52.361L191.37 53.666L191.205 53.891C191.055 53.801 190.95 53.791 190.89 53.861C190.19 54.701 189.25 55.121 188.07 55.121C187.31 55.121 186.64 54.956 186.06 54.626C185.48 54.286 185.03 53.836 184.71 53.276C184.4 52.706 184.245 52.076 184.245 51.386C184.245 50.656 184.4 50.001 184.71 49.421C185.02 48.841 185.45 48.391 186 48.071C186.56 47.741 187.195 47.576 187.905 47.576ZM189.81 50.561C189.77 50.151 189.56 49.806 189.18 49.526C188.81 49.236 188.39 49.091 187.92 49.091C187.45 49.091 187.045 49.236 186.705 49.526C186.365 49.806 186.16 50.151 186.09 50.561H189.81ZM200.38 54.341C200.38 54.391 200.415 54.431 200.485 54.461C200.565 54.491 200.64 54.506 200.71 54.506V54.791H198.565V54.266C197.965 54.756 197.25 55.001 196.42 55.001C195.68 55.001 195.02 54.851 194.44 54.551C193.86 54.251 193.405 53.826 193.075 53.276C192.745 52.726 192.58 52.091 192.58 51.371C192.58 50.641 192.745 49.996 193.075 49.436C193.415 48.866 193.875 48.426 194.455 48.116C195.045 47.796 195.7 47.636 196.42 47.636C197.25 47.636 197.965 47.871 198.565 48.341V43.991C198.565 43.941 198.53 43.901 198.46 43.871C198.39 43.841 198.32 43.826 198.25 43.826V43.541H200.695V43.826C200.625 43.826 200.555 43.841 200.485 43.871C200.415 43.901 200.38 43.941 200.38 43.991V54.341ZM196.51 53.396C196.9 53.396 197.255 53.306 197.575 53.126C197.905 52.946 198.16 52.706 198.34 52.406C198.53 52.096 198.625 51.771 198.625 51.431C198.625 50.821 198.425 50.321 198.025 49.931C197.635 49.531 197.13 49.331 196.51 49.331C195.89 49.331 195.38 49.526 194.98 49.916C194.59 50.296 194.395 50.791 194.395 51.401C194.395 52.011 194.595 52.496 194.995 52.856C195.405 53.216 195.91 53.396 196.51 53.396ZM203.664 46.631C203.344 46.631 203.069 46.521 202.839 46.301C202.619 46.081 202.509 45.806 202.509 45.476C202.509 45.166 202.619 44.901 202.839 44.681C203.069 44.451 203.344 44.336 203.664 44.336C203.984 44.336 204.254 44.451 204.474 44.681C204.694 44.901 204.804 45.166 204.804 45.476C204.804 45.806 204.694 46.081 204.474 46.301C204.254 46.521 203.984 46.631 203.664 46.631ZM202.689 48.341C202.689 48.291 202.649 48.251 202.569 48.221C202.499 48.191 202.429 48.176 202.359 48.176V47.891H204.939V48.176C204.869 48.176 204.794 48.191 204.714 48.221C204.644 48.251 204.609 48.291 204.609 48.341V54.341C204.609 54.391 204.644 54.431 204.714 54.461C204.794 54.491 204.869 54.506 204.939 54.506V54.791H202.359V54.506C202.429 54.506 202.499 54.491 202.569 54.461C202.649 54.431 202.689 54.391 202.689 54.341V48.341ZM214.644 48.176C214.574 48.176 214.499 48.191 214.419 48.221C214.349 48.251 214.314 48.291 214.314 48.341V54.341C214.314 54.391 214.349 54.431 214.419 54.461C214.499 54.491 214.574 54.506 214.644 54.506V54.791H212.424V53.966C211.794 54.646 210.999 54.986 210.039 54.986C209.309 54.986 208.664 54.841 208.104 54.551C207.554 54.251 207.124 53.826 206.814 53.276C206.514 52.726 206.364 52.086 206.364 51.356C206.364 50.646 206.529 50.016 206.859 49.466C207.199 48.906 207.649 48.476 208.209 48.176C208.769 47.866 209.379 47.711 210.039 47.711C210.999 47.711 211.794 48.081 212.424 48.821V47.891H214.644V48.176ZM210.264 53.396C210.674 53.396 211.039 53.306 211.359 53.126C211.689 52.936 211.944 52.691 212.124 52.391C212.304 52.081 212.394 51.751 212.394 51.401C212.394 50.801 212.194 50.306 211.794 49.916C211.404 49.526 210.894 49.331 210.264 49.331C209.654 49.331 209.149 49.521 208.749 49.901C208.359 50.281 208.164 50.766 208.164 51.356C208.164 51.976 208.364 52.471 208.764 52.841C209.174 53.211 209.674 53.396 210.264 53.396Z" fill="white"/>
<path d="M3.65217 64.1682H5.25018L8.02859 70.9523H8.13086L10.9093 64.1682H12.5073V72.8955H11.2544V66.5802H11.1735L8.59961 72.8827H7.55984L4.98597 66.5759H4.90501V72.8955H3.65217V64.1682ZM16.2243 73.0404C15.8095 73.0404 15.4345 72.9637 15.0993 72.8103C14.764 72.654 14.4984 72.4282 14.3024 72.1327C14.1092 71.8373 14.0126 71.4751 14.0126 71.0461C14.0126 70.6768 14.0836 70.3728 14.2257 70.1341C14.3677 69.8955 14.5595 69.7066 14.801 69.5674C15.0424 69.4282 15.3123 69.3231 15.6106 69.252C15.9089 69.181 16.2129 69.127 16.5225 69.0901C16.9146 69.0447 17.2328 69.0077 17.4771 68.9793C17.7214 68.9481 17.899 68.8983 18.0098 68.8302C18.1206 68.762 18.176 68.6512 18.176 68.4978V68.468C18.176 68.0958 18.0708 67.8074 17.8606 67.6029C17.6532 67.3983 17.3436 67.2961 16.9316 67.2961C16.5027 67.2961 16.1646 67.3912 15.9174 67.5816C15.6731 67.7691 15.5041 67.9779 15.4103 68.208L14.2129 67.9353C14.3549 67.5376 14.5623 67.2165 14.835 66.9722C15.1106 66.7251 15.4274 66.5461 15.7853 66.4353C16.1433 66.3216 16.5197 66.2648 16.9146 66.2648C17.176 66.2648 17.4529 66.2961 17.7456 66.3586C18.041 66.4182 18.3166 66.529 18.5723 66.691C18.8308 66.8529 19.0424 67.0844 19.2072 67.3856C19.372 67.6839 19.4544 68.0716 19.4544 68.5489V72.8955H18.21V72.0006H18.1589C18.0765 72.1654 17.9529 72.3273 17.7882 72.4864C17.6234 72.6455 17.4118 72.7776 17.1532 72.8827C16.8947 72.9878 16.585 73.0404 16.2243 73.0404ZM16.5012 72.0177C16.8535 72.0177 17.1547 71.9481 17.4047 71.8089C17.6575 71.6697 17.8493 71.4878 17.9799 71.2634C18.1135 71.0361 18.1802 70.7932 18.1802 70.5347V69.691C18.1348 69.7364 18.0467 69.779 17.916 69.8188C17.7882 69.8557 17.6419 69.8884 17.4771 69.9168C17.3123 69.9424 17.1518 69.9665 16.9956 69.9893C16.8393 70.0091 16.7086 70.0262 16.6035 70.0404C16.3564 70.0716 16.1305 70.1242 15.926 70.1981C15.7243 70.2719 15.5623 70.3785 15.4402 70.5177C15.3208 70.654 15.2612 70.8358 15.2612 71.0631C15.2612 71.3785 15.3777 71.6171 15.6106 71.779C15.8436 71.9381 16.1404 72.0177 16.5012 72.0177ZM23.6017 73.0233C23.0733 73.0233 22.6017 72.8884 22.187 72.6185C21.775 72.3458 21.4512 71.958 21.2154 71.4552C20.9824 70.9495 20.8659 70.343 20.8659 69.6356C20.8659 68.9282 20.9838 68.3231 21.2196 67.8202C21.4583 67.3174 21.785 66.9324 22.1998 66.6654C22.6145 66.3983 23.0847 66.2648 23.6103 66.2648C24.0165 66.2648 24.3432 66.333 24.5904 66.4694C24.8404 66.6029 25.0336 66.7591 25.1699 66.9381C25.3091 67.1171 25.4171 67.2748 25.4938 67.4111H25.5705V64.1682H26.8446V72.8955H25.6003V71.877H25.4938C25.4171 72.0162 25.3063 72.1753 25.1614 72.3543C25.0194 72.5333 24.8233 72.6895 24.5733 72.8231C24.3233 72.9566 23.9995 73.0233 23.6017 73.0233ZM23.883 71.9367C24.2495 71.9367 24.5591 71.8401 24.812 71.6469C25.0676 71.4509 25.2608 71.1796 25.3915 70.833C25.525 70.4864 25.5918 70.083 25.5918 69.6228C25.5918 69.1682 25.5265 68.7705 25.3958 68.4296C25.2651 68.0887 25.0733 67.8231 24.8205 67.6327C24.5676 67.4424 24.2551 67.3472 23.883 67.3472C23.4995 67.3472 23.1799 67.4466 22.9242 67.6455C22.6685 67.8444 22.4753 68.1157 22.3446 68.4594C22.2168 68.8032 22.1529 69.191 22.1529 69.6228C22.1529 70.0603 22.2182 70.4537 22.3489 70.8032C22.4796 71.1526 22.6728 71.4296 22.9284 71.6341C23.187 71.8358 23.5051 71.9367 23.883 71.9367ZM31.4842 73.0276C30.8393 73.0276 30.2839 72.8898 29.818 72.6143C29.3549 72.3358 28.997 71.9452 28.7441 71.4424C28.4941 70.9367 28.3691 70.3444 28.3691 69.6654C28.3691 68.9949 28.4941 68.404 28.7441 67.8927C28.997 67.3813 29.3493 66.9822 29.801 66.6952C30.2555 66.4083 30.7868 66.2648 31.3947 66.2648C31.764 66.2648 32.122 66.3259 32.4686 66.4481C32.8152 66.5702 33.1262 66.762 33.4018 67.0233C33.6774 67.2847 33.8947 67.6242 34.0538 68.0418C34.2129 68.4566 34.2924 68.9608 34.2924 69.5546V70.0063H29.0893V69.0518H33.0439C33.0439 68.7165 32.9757 68.4197 32.8393 68.1611C32.7029 67.8998 32.5112 67.6938 32.264 67.5432C32.0197 67.3927 31.7328 67.3174 31.4032 67.3174C31.0453 67.3174 30.7328 67.4055 30.4657 67.5816C30.2015 67.7549 29.997 67.9822 29.8521 68.2634C29.71 68.5418 29.639 68.8444 29.639 69.1711V69.9168C29.639 70.3543 29.7157 70.7265 29.8691 71.0333C30.0254 71.3401 30.2427 71.5745 30.5211 71.7364C30.7995 71.8955 31.1248 71.9751 31.497 71.9751C31.7385 71.9751 31.9586 71.941 32.1575 71.8728C32.3564 71.8018 32.5282 71.6966 32.6731 71.5574C32.818 71.4182 32.9288 71.2464 33.0055 71.0418L34.2115 71.2591C34.1149 71.6143 33.9416 71.9253 33.6916 72.1924C33.4444 72.4566 33.1333 72.6626 32.7583 72.8103C32.3862 72.9552 31.9615 73.0276 31.4842 73.0276ZM40.693 72.8955L38.2725 64.1682H39.6575L41.3578 70.9268H41.4387L43.2072 64.1682H44.5794L46.3478 70.931H46.4288L48.1248 64.1682H49.514L47.0893 72.8955H45.764L43.9274 66.3586H43.8592L42.0225 72.8955H40.693ZM50.6124 72.8955V66.3501H51.8865V72.8955H50.6124ZM51.2559 65.3401C51.0343 65.3401 50.8439 65.2662 50.6848 65.1185C50.5286 64.968 50.4505 64.789 50.4505 64.5816C50.4505 64.3714 50.5286 64.1924 50.6848 64.0447C50.8439 63.8941 51.0343 63.8188 51.2559 63.8188C51.4775 63.8188 51.6664 63.8941 51.8226 64.0447C51.9817 64.1924 52.0613 64.3714 52.0613 64.5816C52.0613 64.789 51.9817 64.968 51.8226 65.1185C51.6664 65.2662 51.4775 65.3401 51.2559 65.3401ZM56.6561 66.3501V67.3728H53.0808V66.3501H56.6561ZM54.0396 64.7819H55.3137V70.9736C55.3137 71.2208 55.3507 71.4069 55.4245 71.5319C55.4984 71.654 55.5936 71.7378 55.71 71.7833C55.8294 71.8259 55.9586 71.8472 56.0978 71.8472C56.2001 71.8472 56.2896 71.8401 56.3663 71.8259C56.443 71.8117 56.5027 71.8003 56.5453 71.7918L56.7754 72.8444C56.7015 72.8728 56.5964 72.9012 56.46 72.9296C56.3237 72.9608 56.1532 72.9779 55.9487 72.9807C55.6135 72.9864 55.301 72.9268 55.0112 72.8018C54.7214 72.6768 54.487 72.4836 54.3081 72.2222C54.1291 71.9608 54.0396 71.6327 54.0396 71.2378V64.7819ZM59.4803 69.0091V72.8955H58.2061V64.1682H59.4632V67.4154H59.5442C59.6976 67.0631 59.932 66.7833 60.2473 66.5759C60.5627 66.3685 60.9746 66.2648 61.4831 66.2648C61.932 66.2648 62.324 66.3572 62.6593 66.5418C62.9973 66.7265 63.2587 67.002 63.4434 67.3685C63.6309 67.7322 63.7246 68.1867 63.7246 68.7322V72.8955H62.4505V68.8856C62.4505 68.4055 62.3269 68.0333 62.0797 67.7691C61.8326 67.502 61.4888 67.3685 61.0485 67.3685C60.7473 67.3685 60.4775 67.4324 60.2388 67.5603C60.003 67.6881 59.8169 67.8756 59.6806 68.1228C59.5471 68.3671 59.4803 68.6626 59.4803 69.0091ZM85.9508 73.0404C85.536 73.0404 85.161 72.9637 84.8258 72.8103C84.4906 72.654 84.225 72.4282 84.0289 72.1327C83.8358 71.8373 83.7392 71.4751 83.7392 71.0461C83.7392 70.6768 83.8102 70.3728 83.9522 70.1341C84.0943 69.8955 84.286 69.7066 84.5275 69.5674C84.769 69.4282 85.0389 69.3231 85.3372 69.252C85.6355 69.181 85.9395 69.127 86.2491 69.0901C86.6412 69.0447 86.9593 69.0077 87.2037 68.9793C87.448 68.9481 87.6255 68.8983 87.7363 68.8302C87.8471 68.762 87.9025 68.6512 87.9025 68.4978V68.468C87.9025 68.0958 87.7974 67.8074 87.5872 67.6029C87.3798 67.3983 87.0701 67.2961 86.6582 67.2961C86.2292 67.2961 85.8912 67.3912 85.644 67.5816C85.3997 67.7691 85.2306 67.9779 85.1369 68.208L83.9395 67.9353C84.0815 67.5376 84.2889 67.2165 84.5616 66.9722C84.8372 66.7251 85.1539 66.5461 85.5119 66.4353C85.8699 66.3216 86.2463 66.2648 86.6412 66.2648C86.9025 66.2648 87.1795 66.2961 87.4721 66.3586C87.7676 66.4182 88.0431 66.529 88.2988 66.691C88.5574 66.8529 88.769 67.0844 88.9338 67.3856C89.0985 67.6839 89.1809 68.0716 89.1809 68.5489V72.8955H87.9366V72.0006H87.8855C87.8031 72.1654 87.6795 72.3273 87.5147 72.4864C87.35 72.6455 87.1383 72.7776 86.8798 72.8827C86.6213 72.9878 86.3116 73.0404 85.9508 73.0404ZM86.2278 72.0177C86.5801 72.0177 86.8812 71.9481 87.1312 71.8089C87.3841 71.6697 87.5758 71.4878 87.7065 71.2634C87.84 71.0361 87.9068 70.7932 87.9068 70.5347V69.691C87.8613 69.7364 87.7733 69.779 87.6426 69.8188C87.5147 69.8557 87.3684 69.8884 87.2037 69.9168C87.0389 69.9424 86.8784 69.9665 86.7221 69.9893C86.5659 70.0091 86.4352 70.0262 86.3301 70.0404C86.0829 70.0716 85.8571 70.1242 85.6525 70.1981C85.4508 70.2719 85.2889 70.3785 85.1667 70.5177C85.0474 70.654 84.9877 70.8358 84.9877 71.0631C84.9877 71.3785 85.1042 71.6171 85.3372 71.779C85.5701 71.9381 85.867 72.0177 86.2278 72.0177ZM93.9334 66.3501V67.3728H90.3581V66.3501H93.9334ZM91.3169 64.7819H92.5911V70.9736C92.5911 71.2208 92.628 71.4069 92.7019 71.5319C92.7757 71.654 92.8709 71.7378 92.9874 71.7833C93.1067 71.8259 93.236 71.8472 93.3752 71.8472C93.4775 71.8472 93.5669 71.8401 93.6436 71.8259C93.7203 71.8117 93.78 71.8003 93.8226 71.7918L94.0527 72.8444C93.9789 72.8728 93.8738 72.9012 93.7374 72.9296C93.601 72.9608 93.4306 72.9779 93.226 72.9807C92.8908 72.9864 92.5783 72.9268 92.2885 72.8018C91.9988 72.6768 91.7644 72.4836 91.5854 72.2222C91.4064 71.9608 91.3169 71.6327 91.3169 71.2378V64.7819ZM105.869 67.0063H104.54C104.489 66.7222 104.394 66.4722 104.254 66.2563C104.115 66.0404 103.945 65.8572 103.743 65.7066C103.541 65.556 103.316 65.4424 103.066 65.3657C102.818 65.289 102.556 65.2506 102.277 65.2506C101.774 65.2506 101.324 65.377 100.926 65.6299C100.531 65.8827 100.219 66.2535 99.9888 66.7421C99.7615 67.2307 99.6479 67.8273 99.6479 68.5319C99.6479 69.2421 99.7615 69.8415 99.9888 70.3302C100.219 70.8188 100.533 71.1881 100.931 71.4381C101.328 71.6881 101.776 71.8131 102.273 71.8131C102.548 71.8131 102.81 71.7762 103.057 71.7023C103.307 71.6256 103.533 71.5134 103.735 71.3657C103.936 71.218 104.107 71.0376 104.246 70.8245C104.388 70.6086 104.486 70.3614 104.54 70.083L105.869 70.0873C105.798 70.5162 105.661 70.9111 105.456 71.2719C105.254 71.6299 104.994 71.9395 104.676 72.2009C104.361 72.4594 104 72.6597 103.594 72.8018C103.188 72.9438 102.744 73.0148 102.264 73.0148C101.509 73.0148 100.835 72.8358 100.244 72.4779C99.6536 72.1171 99.1877 71.6015 98.8468 70.931C98.5087 70.2606 98.3397 69.4608 98.3397 68.5319C98.3397 67.6001 98.5101 66.8003 98.851 66.1327C99.1919 65.4623 99.6578 64.9481 100.249 64.5901C100.84 64.2293 101.512 64.0489 102.264 64.0489C102.727 64.0489 103.159 64.1157 103.56 64.2492C103.963 64.3799 104.325 64.5731 104.646 64.8287C104.968 65.0816 105.233 65.3912 105.443 65.7577C105.654 66.1214 105.796 66.5376 105.869 67.0063ZM108.617 69.0091V72.8955H107.343V64.1682H108.6V67.4154H108.681C108.834 67.0631 109.069 66.7833 109.384 66.5759C109.699 66.3685 110.111 66.2648 110.62 66.2648C111.069 66.2648 111.461 66.3572 111.796 66.5418C112.134 66.7265 112.395 67.002 112.58 67.3685C112.768 67.7322 112.861 68.1867 112.861 68.7322V72.8955H111.587V68.8856C111.587 68.4055 111.464 68.0333 111.216 67.7691C110.969 67.502 110.626 67.3685 110.185 67.3685C109.884 67.3685 109.614 67.4324 109.376 67.5603C109.14 67.6881 108.954 67.8756 108.817 68.1228C108.684 68.3671 108.617 68.6626 108.617 69.0091ZM116.466 73.0404C116.052 73.0404 115.677 72.9637 115.341 72.8103C115.006 72.654 114.741 72.4282 114.545 72.1327C114.351 71.8373 114.255 71.4751 114.255 71.0461C114.255 70.6768 114.326 70.3728 114.468 70.1341C114.61 69.8955 114.802 69.7066 115.043 69.5674C115.285 69.4282 115.555 69.3231 115.853 69.252C116.151 69.181 116.455 69.127 116.765 69.0901C117.157 69.0447 117.475 69.0077 117.719 68.9793C117.964 68.9481 118.141 68.8983 118.252 68.8302C118.363 68.762 118.418 68.6512 118.418 68.4978V68.468C118.418 68.0958 118.313 67.8074 118.103 67.6029C117.895 67.3983 117.586 67.2961 117.174 67.2961C116.745 67.2961 116.407 67.3912 116.16 67.5816C115.915 67.7691 115.746 67.9779 115.653 68.208L114.455 67.9353C114.597 67.5376 114.805 67.2165 115.077 66.9722C115.353 66.7251 115.67 66.5461 116.028 66.4353C116.385 66.3216 116.762 66.2648 117.157 66.2648C117.418 66.2648 117.695 66.2961 117.988 66.3586C118.283 66.4182 118.559 66.529 118.814 66.691C119.073 66.8529 119.285 67.0844 119.449 67.3856C119.614 67.6839 119.697 68.0716 119.697 68.5489V72.8955H118.452V72.0006H118.401C118.319 72.1654 118.195 72.3273 118.03 72.4864C117.866 72.6455 117.654 72.7776 117.395 72.8827C117.137 72.9878 116.827 73.0404 116.466 73.0404ZM116.743 72.0177C117.096 72.0177 117.397 71.9481 117.647 71.8089C117.9 71.6697 118.091 71.4878 118.222 71.2634C118.356 71.0361 118.422 70.7932 118.422 70.5347V69.691C118.377 69.7364 118.289 69.779 118.158 69.8188C118.03 69.8557 117.884 69.8884 117.719 69.9168C117.555 69.9424 117.394 69.9665 117.238 69.9893C117.081 70.0091 116.951 70.0262 116.846 70.0404C116.599 70.0716 116.373 70.1242 116.168 70.1981C115.966 70.2719 115.805 70.3785 115.682 70.5177C115.563 70.654 115.503 70.8358 115.503 71.0631C115.503 71.3785 115.62 71.6171 115.853 71.779C116.086 71.9381 116.383 72.0177 116.743 72.0177ZM122.668 69.0091V72.8955H121.394V66.3501H122.617V67.4154H122.698C122.848 67.0688 123.084 66.7904 123.405 66.5802C123.729 66.3699 124.137 66.2648 124.628 66.2648C125.074 66.2648 125.465 66.3586 125.8 66.5461C126.135 66.7307 126.395 67.0063 126.58 67.3728C126.764 67.7393 126.857 68.1924 126.857 68.7322V72.8955H125.583V68.8856C125.583 68.4111 125.459 68.0404 125.212 67.7733C124.965 67.5035 124.625 67.3685 124.193 67.3685C123.898 67.3685 123.635 67.4324 123.405 67.5603C123.178 67.6881 122.997 67.8756 122.864 68.1228C122.733 68.3671 122.668 68.6626 122.668 69.0091ZM131.016 73.0233C130.487 73.0233 130.016 72.8884 129.601 72.6185C129.189 72.3458 128.865 71.958 128.629 71.4552C128.396 70.9495 128.28 70.343 128.28 69.6356C128.28 68.9282 128.398 68.3231 128.634 67.8202C128.872 67.3174 129.199 66.9324 129.614 66.6654C130.029 66.3983 130.499 66.2648 131.024 66.2648C131.431 66.2648 131.757 66.333 132.004 66.4694C132.254 66.6029 132.448 66.7591 132.584 66.9381C132.723 67.1171 132.831 67.2748 132.908 67.4111H132.985V64.1682H134.259V72.8955H133.014V71.877H132.908C132.831 72.0162 132.72 72.1753 132.575 72.3543C132.433 72.5333 132.237 72.6895 131.987 72.8231C131.737 72.9566 131.414 73.0233 131.016 73.0233ZM131.297 71.9367C131.664 71.9367 131.973 71.8401 132.226 71.6469C132.482 71.4509 132.675 71.1796 132.806 70.833C132.939 70.4864 133.006 70.083 133.006 69.6228C133.006 69.1682 132.941 68.7705 132.81 68.4296C132.679 68.0887 132.487 67.8231 132.235 67.6327C131.982 67.4424 131.669 67.3472 131.297 67.3472C130.914 67.3472 130.594 67.4466 130.338 67.6455C130.083 67.8444 129.889 68.1157 129.759 68.4594C129.631 68.8032 129.567 69.191 129.567 69.6228C129.567 70.0603 129.632 70.4537 129.763 70.8032C129.894 71.1526 130.087 71.4296 130.343 71.6341C130.601 71.8358 130.919 71.9367 131.297 71.9367ZM136.077 72.8955V66.3501H137.309V67.3898H137.377C137.496 67.0376 137.706 66.7606 138.008 66.5589C138.312 66.3543 138.655 66.252 139.039 66.252C139.118 66.252 139.212 66.2549 139.32 66.2606C139.431 66.2662 139.518 66.2733 139.58 66.2819V67.5006C139.529 67.4864 139.438 67.4708 139.307 67.4537C139.177 67.4339 139.046 67.4239 138.915 67.4239C138.614 67.4239 138.346 67.4878 138.11 67.6157C137.877 67.7407 137.692 67.9154 137.556 68.1398C137.42 68.3614 137.351 68.6143 137.351 68.8983V72.8955H136.077ZM142.529 73.0404C142.114 73.0404 141.739 72.9637 141.404 72.8103C141.069 72.654 140.803 72.4282 140.607 72.1327C140.414 71.8373 140.317 71.4751 140.317 71.0461C140.317 70.6768 140.388 70.3728 140.53 70.1341C140.672 69.8955 140.864 69.7066 141.106 69.5674C141.347 69.4282 141.617 69.3231 141.915 69.252C142.214 69.181 142.518 69.127 142.827 69.0901C143.219 69.0447 143.537 69.0077 143.782 68.9793C144.026 68.9481 144.204 68.8983 144.314 68.8302C144.425 68.762 144.481 68.6512 144.481 68.4978V68.468C144.481 68.0958 144.376 67.8074 144.165 67.6029C143.958 67.3983 143.648 67.2961 143.236 67.2961C142.807 67.2961 142.469 67.3912 142.222 67.5816C141.978 67.7691 141.809 67.9779 141.715 68.208L140.518 67.9353C140.66 67.5376 140.867 67.2165 141.14 66.9722C141.415 66.7251 141.732 66.5461 142.09 66.4353C142.448 66.3216 142.824 66.2648 143.219 66.2648C143.481 66.2648 143.758 66.2961 144.05 66.3586C144.346 66.4182 144.621 66.529 144.877 66.691C145.135 66.8529 145.347 67.0844 145.512 67.3856C145.677 67.6839 145.759 68.0716 145.759 68.5489V72.8955H144.515V72.0006H144.464C144.381 72.1654 144.258 72.3273 144.093 72.4864C143.928 72.6455 143.716 72.7776 143.458 72.8827C143.199 72.9878 142.89 73.0404 142.529 73.0404ZM142.806 72.0177C143.158 72.0177 143.459 71.9481 143.709 71.8089C143.962 71.6697 144.154 71.4878 144.285 71.2634C144.418 71.0361 144.485 70.7932 144.485 70.5347V69.691C144.439 69.7364 144.351 69.779 144.221 69.8188C144.093 69.8557 143.947 69.8884 143.782 69.9168C143.617 69.9424 143.456 69.9665 143.3 69.9893C143.144 70.0091 143.013 70.0262 142.908 70.0404C142.661 70.0716 142.435 70.1242 142.231 70.1981C142.029 70.2719 141.867 70.3785 141.745 70.5177C141.626 70.654 141.566 70.8358 141.566 71.0631C141.566 71.3785 141.682 71.6171 141.915 71.779C142.148 71.9381 142.445 72.0177 142.806 72.0177ZM157.983 67.0063H156.653C156.602 66.7222 156.507 66.4722 156.368 66.2563C156.229 66.0404 156.058 65.8572 155.856 65.7066C155.655 65.556 155.429 65.4424 155.179 65.3657C154.932 65.289 154.669 65.2506 154.39 65.2506C153.888 65.2506 153.437 65.377 153.04 65.6299C152.645 65.8827 152.332 66.2535 152.102 66.7421C151.875 67.2307 151.761 67.8273 151.761 68.5319C151.761 69.2421 151.875 69.8415 152.102 70.3302C152.332 70.8188 152.646 71.1881 153.044 71.4381C153.442 71.6881 153.889 71.8131 154.386 71.8131C154.662 71.8131 154.923 71.7762 155.17 71.7023C155.42 71.6256 155.646 71.5134 155.848 71.3657C156.05 71.218 156.22 71.0376 156.359 70.8245C156.501 70.6086 156.599 70.3614 156.653 70.083L157.983 70.0873C157.912 70.5162 157.774 70.9111 157.569 71.2719C157.368 71.6299 157.108 71.9395 156.79 72.2009C156.474 72.4594 156.113 72.6597 155.707 72.8018C155.301 72.9438 154.858 73.0148 154.378 73.0148C153.622 73.0148 152.949 72.8358 152.358 72.4779C151.767 72.1171 151.301 71.6015 150.96 70.931C150.622 70.2606 150.453 69.4608 150.453 68.5319C150.453 67.6001 150.623 66.8003 150.964 66.1327C151.305 65.4623 151.771 64.9481 152.362 64.5901C152.953 64.2293 153.625 64.0489 154.378 64.0489C154.841 64.0489 155.273 64.1157 155.673 64.2492C156.077 64.3799 156.439 64.5731 156.76 64.8287C157.081 65.0816 157.346 65.3912 157.557 65.7577C157.767 66.1214 157.909 66.5376 157.983 67.0063ZM162.213 73.0276C161.6 73.0276 161.064 72.887 160.607 72.6057C160.149 72.3245 159.794 71.931 159.541 71.4253C159.289 70.9197 159.162 70.3287 159.162 69.6526C159.162 68.9736 159.289 68.3799 159.541 67.8714C159.794 67.3628 160.149 66.968 160.607 66.6867C161.064 66.4055 161.6 66.2648 162.213 66.2648C162.827 66.2648 163.362 66.4055 163.82 66.6867C164.277 66.968 164.632 67.3628 164.885 67.8714C165.138 68.3799 165.264 68.9736 165.264 69.6526C165.264 70.3287 165.138 70.9197 164.885 71.4253C164.632 71.931 164.277 72.3245 163.82 72.6057C163.362 72.887 162.827 73.0276 162.213 73.0276ZM162.218 71.958C162.615 71.958 162.945 71.8529 163.206 71.6427C163.468 71.4324 163.661 71.1526 163.786 70.8032C163.914 70.4537 163.977 70.0688 163.977 69.6483C163.977 69.2307 163.914 68.8472 163.786 68.4978C163.661 68.1455 163.468 67.8628 163.206 67.6498C162.945 67.4367 162.615 67.3302 162.218 67.3302C161.817 67.3302 161.485 67.4367 161.22 67.6498C160.959 67.8628 160.764 68.1455 160.637 68.4978C160.512 68.8472 160.449 69.2307 160.449 69.6483C160.449 70.0688 160.512 70.4537 160.637 70.8032C160.764 71.1526 160.959 71.4324 161.22 71.6427C161.485 71.8529 161.817 71.958 162.218 71.958ZM166.687 72.8955V66.3501H167.918V67.3898H167.986C168.106 67.0376 168.316 66.7606 168.617 66.5589C168.921 66.3543 169.265 66.252 169.648 66.252C169.728 66.252 169.822 66.2549 169.93 66.2606C170.04 66.2662 170.127 66.2733 170.189 66.2819V67.5006C170.138 67.4864 170.047 67.4708 169.917 67.4537C169.786 67.4339 169.655 67.4239 169.525 67.4239C169.224 67.4239 168.955 67.4878 168.719 67.6157C168.486 67.7407 168.302 67.9154 168.165 68.1398C168.029 68.3614 167.961 68.6143 167.961 68.8983V72.8955H166.687ZM171.292 75.3501V66.3501H172.536V67.4111H172.643C172.717 67.2748 172.823 67.1171 172.963 66.9381C173.102 66.7591 173.295 66.6029 173.542 66.4694C173.789 66.333 174.116 66.2648 174.522 66.2648C175.051 66.2648 175.522 66.3983 175.937 66.6654C176.352 66.9324 176.677 67.3174 176.913 67.8202C177.151 68.3231 177.271 68.9282 177.271 69.6356C177.271 70.343 177.153 70.9495 176.917 71.4552C176.681 71.958 176.357 72.3458 175.945 72.6185C175.534 72.8884 175.063 73.0233 174.535 73.0233C174.137 73.0233 173.812 72.9566 173.559 72.8231C173.309 72.6895 173.113 72.5333 172.971 72.3543C172.829 72.1753 172.72 72.0162 172.643 71.877H172.566V75.3501H171.292ZM172.541 69.6228C172.541 70.083 172.607 70.4864 172.741 70.833C172.874 71.1796 173.068 71.4509 173.32 71.6469C173.573 71.8401 173.883 71.9367 174.249 71.9367C174.63 71.9367 174.948 71.8358 175.204 71.6341C175.46 71.4296 175.653 71.1526 175.784 70.8032C175.917 70.4537 175.984 70.0603 175.984 69.6228C175.984 69.191 175.919 68.8032 175.788 68.4594C175.66 68.1157 175.467 67.8444 175.208 67.6455C174.953 67.4466 174.633 67.3472 174.249 67.3472C173.88 67.3472 173.568 67.4424 173.312 67.6327C173.059 67.8231 172.867 68.0887 172.737 68.4296C172.606 68.7705 172.541 69.1682 172.541 69.6228ZM181.455 73.0276C180.842 73.0276 180.306 72.887 179.849 72.6057C179.392 72.3245 179.036 71.931 178.784 71.4253C178.531 70.9197 178.404 70.3287 178.404 69.6526C178.404 68.9736 178.531 68.3799 178.784 67.8714C179.036 67.3628 179.392 66.968 179.849 66.6867C180.306 66.4055 180.842 66.2648 181.455 66.2648C182.069 66.2648 182.605 66.4055 183.062 66.6867C183.519 66.968 183.874 67.3628 184.127 67.8714C184.38 68.3799 184.507 68.9736 184.507 69.6526C184.507 70.3287 184.38 70.9197 184.127 71.4253C183.874 71.931 183.519 72.3245 183.062 72.6057C182.605 72.887 182.069 73.0276 181.455 73.0276ZM181.46 71.958C181.857 71.958 182.187 71.8529 182.448 71.6427C182.71 71.4324 182.903 71.1526 183.028 70.8032C183.156 70.4537 183.22 70.0688 183.22 69.6483C183.22 69.2307 183.156 68.8472 183.028 68.4978C182.903 68.1455 182.71 67.8628 182.448 67.6498C182.187 67.4367 181.857 67.3302 181.46 67.3302C181.059 67.3302 180.727 67.4367 180.463 67.6498C180.201 67.8628 180.007 68.1455 179.879 68.4978C179.754 68.8472 179.691 69.2307 179.691 69.6483C179.691 70.0688 179.754 70.4537 179.879 70.8032C180.007 71.1526 180.201 71.4324 180.463 71.6427C180.727 71.8529 181.059 71.958 181.46 71.958ZM185.929 72.8955V66.3501H187.16V67.3898H187.229C187.348 67.0376 187.558 66.7606 187.859 66.5589C188.163 66.3543 188.507 66.252 188.89 66.252C188.97 66.252 189.064 66.2549 189.172 66.2606C189.282 66.2662 189.369 66.2733 189.432 66.2819V67.5006C189.381 67.4864 189.29 67.4708 189.159 67.4537C189.028 67.4339 188.898 67.4239 188.767 67.4239C188.466 67.4239 188.197 67.4878 187.961 67.6157C187.729 67.7407 187.544 67.9154 187.407 68.1398C187.271 68.3614 187.203 68.6143 187.203 68.8983V72.8955H185.929ZM192.381 73.0404C191.966 73.0404 191.591 72.9637 191.256 72.8103C190.92 72.654 190.655 72.4282 190.459 72.1327C190.265 71.8373 190.169 71.4751 190.169 71.0461C190.169 70.6768 190.24 70.3728 190.382 70.1341C190.524 69.8955 190.716 69.7066 190.957 69.5674C191.199 69.4282 191.469 69.3231 191.767 69.252C192.065 69.181 192.369 69.127 192.679 69.0901C193.071 69.0447 193.389 69.0077 193.633 68.9793C193.878 68.9481 194.055 68.8983 194.166 68.8302C194.277 68.762 194.332 68.6512 194.332 68.4978V68.468C194.332 68.0958 194.227 67.8074 194.017 67.6029C193.809 67.3983 193.5 67.2961 193.088 67.2961C192.659 67.2961 192.321 67.3912 192.074 67.5816C191.829 67.7691 191.66 67.9779 191.567 68.208L190.369 67.9353C190.511 67.5376 190.719 67.2165 190.991 66.9722C191.267 66.7251 191.584 66.5461 191.942 66.4353C192.3 66.3216 192.676 66.2648 193.071 66.2648C193.332 66.2648 193.609 66.2961 193.902 66.3586C194.197 66.4182 194.473 66.529 194.729 66.691C194.987 66.8529 195.199 67.0844 195.363 67.3856C195.528 67.6839 195.611 68.0716 195.611 68.5489V72.8955H194.366V72.0006H194.315C194.233 72.1654 194.109 72.3273 193.944 72.4864C193.78 72.6455 193.568 72.7776 193.309 72.8827C193.051 72.9878 192.741 73.0404 192.381 73.0404ZM192.657 72.0177C193.01 72.0177 193.311 71.9481 193.561 71.8089C193.814 71.6697 194.006 71.4878 194.136 71.2634C194.27 71.0361 194.336 70.7932 194.336 70.5347V69.691C194.291 69.7364 194.203 69.779 194.072 69.8188C193.944 69.8557 193.798 69.8884 193.633 69.9168C193.469 69.9424 193.308 69.9665 193.152 69.9893C192.996 70.0091 192.865 70.0262 192.76 70.0404C192.513 70.0716 192.287 70.1242 192.082 70.1981C191.881 70.2719 191.719 70.3785 191.596 70.5177C191.477 70.654 191.417 70.8358 191.417 71.0631C191.417 71.3785 191.534 71.6171 191.767 71.779C192 71.9381 192.297 72.0177 192.657 72.0177ZM200.363 66.3501V67.3728H196.788V66.3501H200.363ZM197.747 64.7819H199.021V70.9736C199.021 71.2208 199.058 71.4069 199.132 71.5319C199.205 71.654 199.301 71.7378 199.417 71.7833C199.536 71.8259 199.666 71.8472 199.805 71.8472C199.907 71.8472 199.997 71.8401 200.073 71.8259C200.15 71.8117 200.21 71.8003 200.252 71.7918L200.482 72.8444C200.409 72.8728 200.303 72.9012 200.167 72.9296C200.031 72.9608 199.86 72.9779 199.656 72.9807C199.32 72.9864 199.008 72.9268 198.718 72.8018C198.428 72.6768 198.194 72.4836 198.015 72.2222C197.836 71.9608 197.747 71.6327 197.747 71.2378V64.7819ZM201.773 72.8955V66.3501H203.047V72.8955H201.773ZM202.416 65.3401C202.194 65.3401 202.004 65.2662 201.845 65.1185C201.689 64.968 201.611 64.789 201.611 64.5816C201.611 64.3714 201.689 64.1924 201.845 64.0447C202.004 63.8941 202.194 63.8188 202.416 63.8188C202.638 63.8188 202.827 63.8941 202.983 64.0447C203.142 64.1924 203.221 64.3714 203.221 64.5816C203.221 64.789 203.142 64.968 202.983 65.1185C202.827 65.2662 202.638 65.3401 202.416 65.3401ZM207.518 73.0276C206.904 73.0276 206.369 72.887 205.911 72.6057C205.454 72.3245 205.099 71.931 204.846 71.4253C204.593 70.9197 204.467 70.3287 204.467 69.6526C204.467 68.9736 204.593 68.3799 204.846 67.8714C205.099 67.3628 205.454 66.968 205.911 66.6867C206.369 66.4055 206.904 66.2648 207.518 66.2648C208.132 66.2648 208.667 66.4055 209.124 66.6867C209.582 66.968 209.937 67.3628 210.19 67.8714C210.443 68.3799 210.569 68.9736 210.569 69.6526C210.569 70.3287 210.443 70.9197 210.19 71.4253C209.937 71.931 209.582 72.3245 209.124 72.6057C208.667 72.887 208.132 73.0276 207.518 73.0276ZM207.522 71.958C207.92 71.958 208.249 71.8529 208.511 71.6427C208.772 71.4324 208.965 71.1526 209.09 70.8032C209.218 70.4537 209.282 70.0688 209.282 69.6483C209.282 69.2307 209.218 68.8472 209.09 68.4978C208.965 68.1455 208.772 67.8628 208.511 67.6498C208.249 67.4367 207.92 67.3302 207.522 67.3302C207.122 67.3302 206.789 67.4367 206.525 67.6498C206.264 67.8628 206.069 68.1455 205.941 68.4978C205.816 68.8472 205.754 69.2307 205.754 69.6483C205.754 70.0688 205.816 70.4537 205.941 70.8032C206.069 71.1526 206.264 71.4324 206.525 71.6427C206.789 71.8529 207.122 71.958 207.522 71.958ZM213.265 69.0091V72.8955H211.991V66.3501H213.214V67.4154H213.295C213.446 67.0688 213.682 66.7904 214.003 66.5802C214.327 66.3699 214.734 66.2648 215.226 66.2648C215.672 66.2648 216.062 66.3586 216.398 66.5461C216.733 66.7307 216.993 67.0063 217.177 67.3728C217.362 67.7393 217.454 68.1924 217.454 68.7322V72.8955H216.18V68.8856C216.18 68.4111 216.057 68.0404 215.809 67.7733C215.562 67.5035 215.223 67.3685 214.791 67.3685C214.496 67.3685 214.233 67.4324 214.003 67.5603C213.775 67.6881 213.595 67.8756 213.461 68.1228C213.331 68.3671 213.265 68.6626 213.265 69.0091Z" fill="white"/>
<path d="M73.8805 73.0319L69.4998 68.6512C69.1504 68.3018 68.9174 67.8955 68.801 67.4324C68.6873 66.9694 68.6887 66.5091 68.8052 66.0518C68.9217 65.5915 69.1532 65.191 69.4998 64.8501C69.8549 64.5006 70.2598 64.2691 70.7143 64.1555C71.1717 64.039 71.6277 64.039 72.0822 64.1555C72.5396 64.2719 72.9458 64.5035 73.301 64.8501L73.8805 65.4126L74.4601 64.8501C74.818 64.5035 75.2243 64.2719 75.6788 64.1555C76.1333 64.039 76.5879 64.039 77.0424 64.1555C77.4998 64.2691 77.9061 64.5006 78.2612 64.8501C78.6078 65.191 78.8393 65.5915 78.9558 66.0518C79.0723 66.5091 79.0723 66.9694 78.9558 67.4324C78.8422 67.8955 78.6106 68.3018 78.2612 68.6512L73.8805 73.0319Z" fill="#FF0000"/>
</svg>
