<svg width="221" height="52" viewBox="0 0 221 52" fill="none" xmlns="http://www.w3.org/2000/svg">
<path d="M52.1823 13.07C52.0423 13.07 51.8923 13.1 51.7323 13.16C51.5723 13.22 51.4923 13.3 51.4923 13.4V34.1C51.4923 34.2 51.5623 34.28 51.7023 34.34C51.8623 34.4 52.0123 34.43 52.1523 34.43V35H46.8723V34.43C47.3523 34.43 47.5023 34.3 47.3223 34.04L36.6723 19.34V34.1C36.6723 34.2 36.7523 34.28 36.9123 34.34C37.0723 34.4 37.2323 34.43 37.3923 34.43V35H31.9023V34.43C32.0623 34.43 32.2223 34.4 32.3823 34.34C32.5423 34.28 32.6223 34.2 32.6223 34.1V13.4C32.6223 13.3 32.5423 13.22 32.3823 13.16C32.2423 13.1 32.1023 13.07 31.9623 13.07V12.5H37.3923V13.07C36.9123 13.07 36.7623 13.2 36.9423 13.46L47.8923 28.64L47.5023 13.4C47.5023 13.3 47.4123 13.22 47.2323 13.16C47.0723 13.1 46.9223 13.07 46.7823 13.07V12.5H52.1823V13.07ZM66.5934 35.48C64.2734 35.48 62.1934 34.95 60.3534 33.89C58.5334 32.81 57.1134 31.39 56.0934 29.63C55.0934 27.85 54.5934 25.97 54.5934 23.99C54.5934 21.99 55.0734 20.07 56.0334 18.23C56.9934 16.37 58.3834 14.86 60.2034 13.7C62.0234 12.54 64.1534 11.96 66.5934 11.96C68.9734 11.96 71.0634 12.51 72.8634 13.61C74.6634 14.71 76.0434 16.18 77.0034 18.02C77.9634 19.84 78.4434 21.83 78.4434 23.99C78.4434 25.91 77.9634 27.76 77.0034 29.54C76.0634 31.3 74.6934 32.73 72.8934 33.83C71.0934 34.93 68.9934 35.48 66.5934 35.48ZM66.6234 31.52C68.1234 31.52 69.4634 31.21 70.6434 30.59C71.8434 29.95 72.7734 29.06 73.4334 27.92C74.1134 26.76 74.4534 25.45 74.4534 23.99C74.4534 22.45 74.1334 21.07 73.4934 19.85C72.8534 18.63 71.9334 17.67 70.7334 16.97C69.5334 16.25 68.1134 15.89 66.4734 15.89C64.9734 15.89 63.6334 16.25 62.4534 16.97C61.2934 17.67 60.3834 18.64 59.7234 19.88C59.0634 21.12 58.7334 22.49 58.7334 23.99C58.7334 25.55 59.1134 26.9 59.8734 28.04C60.6534 29.18 61.6434 30.05 62.8434 30.65C64.0634 31.23 65.3234 31.52 66.6234 31.52ZM98.3774 34.22C98.4574 34.36 98.7274 34.43 99.1874 34.43V35H93.0974V34.43C93.3774 34.43 93.5674 34.38 93.6674 34.28C93.7674 34.18 93.7774 34.08 93.6974 33.98L88.6574 25.49H85.5674V34.1C85.5674 34.2 85.6474 34.28 85.8074 34.34C85.9674 34.4 86.1174 34.43 86.2574 34.43V35H80.8574V34.43C80.9974 34.43 81.1474 34.4 81.3074 34.34C81.4674 34.28 81.5474 34.2 81.5474 34.1V13.4C81.5474 13.3 81.4674 13.22 81.3074 13.16C81.1674 13.1 81.0274 13.07 80.8874 13.07V12.5H90.0374C92.6774 12.5 94.6674 13.1 96.0074 14.3C97.3674 15.48 98.0474 17.01 98.0474 18.89C98.0474 20.63 97.5674 22.03 96.6074 23.09C95.6674 24.15 94.4474 24.86 92.9474 25.22L98.3774 34.22ZM85.5674 15.98V21.86H90.4874C91.7274 21.86 92.6574 21.57 93.2774 20.99C93.8974 20.41 94.2074 19.71 94.2074 18.89C94.2074 18.09 93.8574 17.41 93.1574 16.85C92.4574 16.27 91.5974 15.98 90.5774 15.98H85.5674ZM127.287 34.1C127.287 34.2 127.357 34.28 127.497 34.34C127.657 34.4 127.817 34.43 127.977 34.43V35H122.727V34.43C122.887 34.43 123.037 34.4 123.177 34.34C123.337 34.28 123.417 34.2 123.417 34.1V16.91L114.627 36.14L105.867 16.85V34.1C105.867 34.2 105.937 34.28 106.077 34.34C106.237 34.4 106.397 34.43 106.557 34.43V35H101.277V34.43C101.437 34.43 101.587 34.4 101.727 34.34C101.887 34.28 101.967 34.2 101.967 34.1V13.4C101.967 13.3 101.887 13.22 101.727 13.16C101.587 13.1 101.447 13.07 101.307 13.07V12.5H109.047V13.07C108.807 13.07 108.647 13.13 108.567 13.25C108.507 13.35 108.507 13.47 108.567 13.61L114.657 27.77L120.837 13.61C120.877 13.49 120.817 13.37 120.657 13.25C120.497 13.13 120.297 13.07 120.057 13.07V12.5H127.947V13.07C127.807 13.07 127.657 13.1 127.497 13.16C127.357 13.22 127.287 13.3 127.287 13.4V34.1ZM140.134 35.57C138.414 35.57 136.814 35.17 135.334 34.37C133.854 33.55 132.424 32.43 131.044 31.01C131.004 30.97 130.954 30.95 130.894 30.95C130.714 30.95 130.514 31.06 130.294 31.28L129.904 30.86L134.074 26.93L134.464 27.35C134.344 27.45 134.234 27.59 134.134 27.77C134.034 27.95 134.014 28.08 134.074 28.16C135.934 30.52 137.964 31.7 140.164 31.7C140.924 31.7 141.604 31.55 142.204 31.25C142.824 30.95 143.304 30.57 143.644 30.11C143.984 29.63 144.154 29.14 144.154 28.64C144.154 27.46 143.124 26.49 141.064 25.73L137.374 24.35C135.894 23.81 134.734 23.07 133.894 22.13C133.074 21.19 132.664 20.06 132.664 18.74C132.664 17.44 132.964 16.31 133.564 15.35C134.184 14.37 135.054 13.62 136.174 13.1C137.294 12.58 138.594 12.32 140.074 12.32C141.474 12.32 142.644 12.54 143.584 12.98C144.544 13.4 145.564 14.05 146.644 14.93C146.664 14.95 146.704 14.96 146.764 14.96C146.864 14.96 146.974 14.93 147.094 14.87C147.234 14.79 147.344 14.71 147.424 14.63L147.814 15.02L144.094 18.68L143.704 18.26C143.804 18.16 143.874 18.05 143.914 17.93C143.974 17.79 143.964 17.69 143.884 17.63C142.584 16.59 141.294 16.07 140.014 16.07C138.994 16.07 138.184 16.31 137.584 16.79C136.984 17.25 136.684 17.84 136.684 18.56C136.684 19.2 136.844 19.69 137.164 20.03C137.504 20.37 138.014 20.66 138.694 20.9L142.324 22.22C143.584 22.68 144.634 23.17 145.474 23.69C146.314 24.19 146.984 24.86 147.484 25.7C147.984 26.52 148.234 27.55 148.234 28.79C148.234 29.99 147.914 31.11 147.274 32.15C146.654 33.17 145.724 34 144.484 34.64C143.264 35.26 141.814 35.57 140.134 35.57ZM167.047 30.8V35.6H166.477C166.477 35.46 166.447 35.32 166.387 35.18C166.327 35.04 166.247 34.97 166.147 34.97H150.877V34.4C151.017 34.4 151.157 34.37 151.297 34.31C151.457 34.25 151.537 34.17 151.537 34.07V13.37C151.537 13.27 151.457 13.19 151.297 13.13C151.157 13.07 151.017 13.04 150.877 13.04V12.47H165.367C165.467 12.47 165.547 12.4 165.607 12.26C165.667 12.12 165.697 11.98 165.697 11.84H166.267V16.64H165.697C165.697 16.5 165.667 16.36 165.607 16.22C165.547 16.08 165.467 16.01 165.367 16.01H155.407V21.29H163.897C163.997 21.29 164.077 21.22 164.137 21.08C164.197 20.94 164.227 20.8 164.227 20.66H164.797V25.46H164.227C164.227 25.32 164.197 25.18 164.137 25.04C164.077 24.9 163.997 24.83 163.897 24.83H155.407V31.43H166.147C166.247 31.43 166.327 31.36 166.387 31.22C166.447 31.08 166.477 30.94 166.477 30.8H167.047ZM180.288 35.3C178.148 35.3 176.178 34.8 174.378 33.8C172.578 32.78 171.158 31.38 170.118 29.6C169.078 27.8 168.558 25.8 168.558 23.6C168.558 21.28 169.078 19.23 170.118 17.45C171.158 15.67 172.558 14.3 174.318 13.34C176.078 12.36 178.008 11.87 180.108 11.87C182.128 11.87 183.828 12.23 185.208 12.95C186.608 13.65 187.928 14.64 189.168 15.92C189.208 15.96 189.268 15.98 189.348 15.98C189.468 15.98 189.678 15.89 189.978 15.71L190.338 16.16L186.198 19.43L185.838 18.98C185.958 18.9 186.048 18.8 186.108 18.68C186.188 18.54 186.188 18.44 186.108 18.38C185.268 17.56 184.388 16.94 183.468 16.52C182.568 16.08 181.468 15.86 180.168 15.86C178.808 15.86 177.558 16.2 176.418 16.88C175.278 17.54 174.378 18.46 173.718 19.64C173.058 20.82 172.728 22.14 172.728 23.6C172.728 25 173.078 26.28 173.778 27.44C174.478 28.58 175.408 29.48 176.568 30.14C177.728 30.8 178.968 31.13 180.288 31.13C181.528 31.13 182.588 30.92 183.468 30.5C184.348 30.06 185.178 29.41 185.958 28.55L186.018 28.43C186.018 28.33 185.968 28.22 185.868 28.1C185.788 27.96 185.698 27.86 185.598 27.8L185.988 27.38L190.458 31.13L190.098 31.58C189.978 31.48 189.828 31.39 189.648 31.31C189.468 31.23 189.348 31.23 189.288 31.31C188.028 32.67 186.708 33.68 185.328 34.34C183.948 34.98 182.268 35.3 180.288 35.3Z" fill="white"/>
<path d="M17.4135 46.58C17.4435 46.67 17.5635 46.715 17.7735 46.715V47H14.7285V46.715C14.8585 46.715 14.9485 46.685 14.9985 46.625C15.0485 46.565 15.0585 46.505 15.0285 46.445L14.2035 44.33H9.31346L8.48846 46.445L8.47346 46.49C8.47346 46.55 8.49846 46.605 8.54846 46.655C8.60846 46.695 8.68346 46.715 8.77346 46.715V47H5.81846V46.715C6.01846 46.715 6.13846 46.67 6.17846 46.58L10.3485 36.44C10.3785 36.38 10.3935 36.325 10.3935 36.275C10.3935 36.185 10.3535 36.125 10.2735 36.095C10.1935 36.055 10.1085 36.035 10.0185 36.035V35.75H13.5135V36.035C13.4235 36.035 13.3385 36.055 13.2585 36.095C13.1785 36.125 13.1385 36.185 13.1385 36.275C13.1385 36.325 13.1535 36.38 13.1835 36.44L17.4135 46.58ZM11.7585 38.09L9.98846 42.605H13.5285L11.7585 38.09ZM26.2433 47.315C25.6033 47.315 25.0083 47.155 24.4583 46.835C23.9083 46.515 23.4683 46.08 23.1383 45.53C22.8183 44.98 22.6583 44.38 22.6583 43.73C22.6583 42.96 22.8183 42.285 23.1383 41.705C23.4683 41.115 23.9083 40.665 24.4583 40.355C25.0083 40.035 25.6133 39.875 26.2733 39.875C26.7433 39.875 27.1433 39.93 27.4733 40.04C27.8133 40.15 28.0833 40.285 28.2833 40.445C28.4933 40.595 28.7533 40.81 29.0633 41.09C29.0833 41.11 29.1083 41.12 29.1383 41.12C29.1783 41.12 29.2233 41.105 29.2733 41.075C29.3333 41.045 29.3783 41.015 29.4083 40.985L29.6033 41.195L27.9833 42.695L27.7883 42.485C27.8383 42.445 27.8783 42.39 27.9083 42.32C27.9483 42.24 27.9533 42.18 27.9233 42.14C27.5633 41.7 27.0683 41.48 26.4383 41.48C25.8683 41.48 25.3883 41.67 24.9983 42.05C24.6183 42.43 24.4283 42.925 24.4283 43.535C24.4283 44.165 24.6133 44.67 24.9833 45.05C25.3533 45.43 25.8383 45.62 26.4383 45.62C26.7383 45.62 26.9833 45.585 27.1733 45.515C27.3633 45.435 27.5783 45.29 27.8183 45.08C27.8383 45.06 27.8483 45.035 27.8483 45.005C27.8483 44.945 27.8133 44.88 27.7433 44.81L27.9233 44.585L29.5433 45.935L29.3633 46.145C29.2033 46.055 29.0933 46.04 29.0333 46.1C28.6633 46.51 28.2733 46.815 27.8633 47.015C27.4633 47.215 26.9233 47.315 26.2433 47.315ZM38.7037 40.385C38.4937 40.385 38.3637 40.425 38.3137 40.505L33.0637 50.84C33.0537 50.85 33.0487 50.865 33.0487 50.885C33.0487 50.945 33.0837 50.995 33.1537 51.035C33.2237 51.075 33.3137 51.095 33.4237 51.095V51.38H30.6037V51.095C30.8137 51.095 30.9437 51.055 30.9937 50.975L33.4387 46.16L30.3637 40.49C30.3237 40.42 30.1937 40.385 29.9737 40.385V40.1H32.7487V40.385C32.6287 40.385 32.5537 40.41 32.5237 40.46C32.5037 40.51 32.5137 40.565 32.5537 40.625L34.4587 44.15L36.2437 40.64C36.2537 40.63 36.2587 40.615 36.2587 40.595C36.2587 40.535 36.2237 40.485 36.1537 40.445C36.0837 40.405 35.9937 40.385 35.8837 40.385V40.1H38.7037V40.385ZM43.9172 39.92C44.6272 39.92 45.2722 40.075 45.8522 40.385C46.4322 40.685 46.8872 41.11 47.2172 41.66C47.5572 42.21 47.7272 42.845 47.7272 43.565C47.7272 44.295 47.5622 44.935 47.2322 45.485C46.9022 46.025 46.4472 46.445 45.8672 46.745C45.2972 47.045 44.6472 47.195 43.9172 47.195C43.0772 47.195 42.3472 46.945 41.7272 46.445V47H39.5372V46.715C39.6072 46.715 39.6772 46.7 39.7472 46.67C39.8272 46.64 39.8672 46.6 39.8672 46.55V36.2C39.8672 36.15 39.8272 36.11 39.7472 36.08C39.6772 36.05 39.6072 36.035 39.5372 36.035V35.75H42.0572V36.035C41.9872 36.035 41.9122 36.05 41.8322 36.08C41.7622 36.11 41.7272 36.15 41.7272 36.2V40.625C42.3272 40.155 43.0572 39.92 43.9172 39.92ZM43.7972 45.605C44.3972 45.605 44.8972 45.42 45.2972 45.05C45.7072 44.68 45.9122 44.185 45.9122 43.565C45.9122 42.985 45.7122 42.505 45.3122 42.125C44.9122 41.735 44.4072 41.54 43.7972 41.54C43.1772 41.54 42.6672 41.735 42.2672 42.125C41.8672 42.515 41.6672 43.01 41.6672 43.61C41.6672 43.96 41.7572 44.29 41.9372 44.6C42.1272 44.9 42.3872 45.145 42.7172 45.335C43.0472 45.515 43.4072 45.605 43.7972 45.605ZM52.4365 39.785C53.2065 39.785 53.8715 39.955 54.4315 40.295C54.9915 40.625 55.4165 41.075 55.7065 41.645C55.9965 42.215 56.1415 42.845 56.1415 43.535C56.1415 43.745 56.1265 43.955 56.0965 44.165H50.6065C50.6465 44.645 50.8565 45.02 51.2365 45.29C51.6165 45.56 52.0715 45.695 52.6015 45.695C52.9615 45.695 53.2615 45.645 53.5015 45.545C53.7515 45.445 53.9715 45.295 54.1615 45.095C54.1815 45.055 54.1915 45.03 54.1915 45.02C54.1915 44.98 54.1765 44.94 54.1465 44.9C54.1165 44.85 54.0865 44.815 54.0565 44.795L54.2365 44.57L55.9015 45.875L55.7365 46.1C55.5865 46.01 55.4815 46 55.4215 46.07C54.7215 46.91 53.7815 47.33 52.6015 47.33C51.8415 47.33 51.1715 47.165 50.5915 46.835C50.0115 46.495 49.5615 46.045 49.2415 45.485C48.9315 44.915 48.7765 44.285 48.7765 43.595C48.7765 42.865 48.9315 42.21 49.2415 41.63C49.5515 41.05 49.9815 40.6 50.5315 40.28C51.0915 39.95 51.7265 39.785 52.4365 39.785ZM54.3415 42.77C54.3015 42.36 54.0915 42.015 53.7115 41.735C53.3415 41.445 52.9215 41.3 52.4515 41.3C51.9815 41.3 51.5765 41.445 51.2365 41.735C50.8965 42.015 50.6915 42.36 50.6215 42.77H54.3415ZM61.8964 39.65V42.065H61.6114C61.6114 41.995 61.5964 41.915 61.5664 41.825C61.5364 41.735 61.4964 41.685 61.4464 41.675H61.3414C61.0314 41.675 60.7164 41.765 60.3964 41.945C60.0864 42.115 59.8264 42.345 59.6164 42.635C59.4164 42.915 59.3164 43.215 59.3164 43.535V46.55C59.3164 46.6 59.3514 46.64 59.4214 46.67C59.5014 46.7 59.5764 46.715 59.6464 46.715V47H57.1264V46.715C57.1964 46.715 57.2664 46.7 57.3364 46.67C57.4164 46.64 57.4564 46.6 57.4564 46.55V40.55C57.4564 40.5 57.4164 40.46 57.3364 40.43C57.2664 40.4 57.1964 40.385 57.1264 40.385V40.1H59.3164V40.745C59.5864 40.495 59.9114 40.295 60.2914 40.145C60.6714 39.995 61.0514 39.92 61.4314 39.92H61.4464H61.4614C61.5114 39.92 61.5464 39.89 61.5664 39.83C61.5964 39.77 61.6114 39.71 61.6114 39.65H61.8964ZM69.9276 47.225C69.4176 47.225 68.9226 47.12 68.4426 46.91C67.9726 46.7 67.4976 46.4 67.0176 46.01C66.9976 45.99 66.9726 45.98 66.9426 45.98C66.8626 45.98 66.7776 46.025 66.6876 46.115L66.4776 45.935L67.9776 44.225L68.1876 44.42C68.1476 44.47 68.1126 44.53 68.0826 44.6C68.0626 44.67 68.0726 44.725 68.1126 44.765C68.4426 45.065 68.7476 45.29 69.0276 45.44C69.3176 45.58 69.6176 45.65 69.9276 45.65C70.6976 45.65 71.0826 45.395 71.0826 44.885C71.0826 44.655 70.9626 44.48 70.7226 44.36C70.4926 44.23 70.1026 44.09 69.5526 43.94C68.8426 43.75 68.3276 43.505 68.0076 43.205C67.6876 42.895 67.5276 42.475 67.5276 41.945C67.5276 41.315 67.7326 40.805 68.1426 40.415C68.5526 40.015 69.1126 39.815 69.8226 39.815C70.1826 39.815 70.5076 39.87 70.7976 39.98C71.0876 40.09 71.4376 40.285 71.8476 40.565C71.8576 40.575 71.8776 40.58 71.9076 40.58C71.9576 40.58 72.0076 40.565 72.0576 40.535C72.1076 40.505 72.1426 40.475 72.1626 40.445L72.3876 40.64L71.0376 42.17L70.8276 41.99C70.8676 41.95 70.8926 41.9 70.9026 41.84C70.9226 41.77 70.9126 41.715 70.8726 41.675C70.6926 41.535 70.5176 41.43 70.3476 41.36C70.1876 41.29 70.0076 41.255 69.8076 41.255C69.5976 41.255 69.4326 41.295 69.3126 41.375C69.1926 41.455 69.1326 41.575 69.1326 41.735C69.1326 41.865 69.1676 41.97 69.2376 42.05C69.3076 42.13 69.4326 42.21 69.6126 42.29C69.8026 42.37 70.0876 42.47 70.4676 42.59C71.1676 42.8 71.7176 43.095 72.1176 43.475C72.5176 43.845 72.7176 44.305 72.7176 44.855C72.7176 45.665 72.4626 46.265 71.9526 46.655C71.4426 47.035 70.7676 47.225 69.9276 47.225ZM77.2802 39.785C78.0502 39.785 78.7152 39.955 79.2752 40.295C79.8352 40.625 80.2602 41.075 80.5502 41.645C80.8402 42.215 80.9852 42.845 80.9852 43.535C80.9852 43.745 80.9702 43.955 80.9402 44.165H75.4502C75.4902 44.645 75.7002 45.02 76.0802 45.29C76.4602 45.56 76.9152 45.695 77.4452 45.695C77.8052 45.695 78.1052 45.645 78.3452 45.545C78.5952 45.445 78.8152 45.295 79.0052 45.095C79.0252 45.055 79.0352 45.03 79.0352 45.02C79.0352 44.98 79.0202 44.94 78.9902 44.9C78.9602 44.85 78.9302 44.815 78.9002 44.795L79.0802 44.57L80.7452 45.875L80.5802 46.1C80.4302 46.01 80.3252 46 80.2652 46.07C79.5652 46.91 78.6252 47.33 77.4452 47.33C76.6852 47.33 76.0152 47.165 75.4352 46.835C74.8552 46.495 74.4052 46.045 74.0852 45.485C73.7752 44.915 73.6202 44.285 73.6202 43.595C73.6202 42.865 73.7752 42.21 74.0852 41.63C74.3952 41.05 74.8252 40.6 75.3752 40.28C75.9352 39.95 76.5702 39.785 77.2802 39.785ZM79.1852 42.77C79.1452 42.36 78.9352 42.015 78.5552 41.735C78.1852 41.445 77.7652 41.3 77.2952 41.3C76.8252 41.3 76.4202 41.445 76.0802 41.735C75.7402 42.015 75.5352 42.36 75.4652 42.77H79.1852ZM85.5402 47.315C84.9002 47.315 84.3052 47.155 83.7552 46.835C83.2052 46.515 82.7652 46.08 82.4352 45.53C82.1152 44.98 81.9552 44.38 81.9552 43.73C81.9552 42.96 82.1152 42.285 82.4352 41.705C82.7652 41.115 83.2052 40.665 83.7552 40.355C84.3052 40.035 84.9102 39.875 85.5702 39.875C86.0402 39.875 86.4402 39.93 86.7702 40.04C87.1102 40.15 87.3802 40.285 87.5802 40.445C87.7902 40.595 88.0502 40.81 88.3602 41.09C88.3802 41.11 88.4052 41.12 88.4352 41.12C88.4752 41.12 88.5202 41.105 88.5702 41.075C88.6302 41.045 88.6752 41.015 88.7052 40.985L88.9002 41.195L87.2802 42.695L87.0852 42.485C87.1352 42.445 87.1752 42.39 87.2052 42.32C87.2452 42.24 87.2502 42.18 87.2202 42.14C86.8602 41.7 86.3652 41.48 85.7352 41.48C85.1652 41.48 84.6852 41.67 84.2952 42.05C83.9152 42.43 83.7252 42.925 83.7252 43.535C83.7252 44.165 83.9102 44.67 84.2802 45.05C84.6502 45.43 85.1352 45.62 85.7352 45.62C86.0352 45.62 86.2802 45.585 86.4702 45.515C86.6602 45.435 86.8752 45.29 87.1152 45.08C87.1352 45.06 87.1452 45.035 87.1452 45.005C87.1452 44.945 87.1102 44.88 87.0402 44.81L87.2202 44.585L88.8402 45.935L88.6602 46.145C88.5002 46.055 88.3902 46.04 88.3302 46.1C87.9602 46.51 87.5702 46.815 87.1602 47.015C86.7602 47.215 86.2202 47.315 85.5402 47.315ZM96.5606 46.55C96.5606 46.6 96.5956 46.64 96.6656 46.67C96.7456 46.7 96.8206 46.715 96.8906 46.715V47H95.0306V46.445C94.5006 46.905 93.8856 47.135 93.1856 47.135C92.1356 47.135 91.3656 46.835 90.8756 46.235C90.3856 45.625 90.1406 44.865 90.1406 43.955V40.55C90.1406 40.5 90.1006 40.46 90.0206 40.43C89.9506 40.4 89.8806 40.385 89.8106 40.385V40.1H92.3606V40.385C92.2906 40.385 92.2156 40.4 92.1356 40.43C92.0656 40.46 92.0306 40.5 92.0306 40.55V43.835C92.0306 44.265 92.1406 44.63 92.3606 44.93C92.5806 45.22 92.9206 45.365 93.3806 45.365C93.8206 45.365 94.1506 45.23 94.3706 44.96C94.5906 44.69 94.7006 44.345 94.7006 43.925V40.55C94.7006 40.5 94.6606 40.46 94.5806 40.43C94.5106 40.4 94.4406 40.385 94.3706 40.385V40.1H96.8906V40.385C96.8206 40.385 96.7456 40.4 96.6656 40.43C96.5956 40.46 96.5606 40.5 96.5606 40.55V46.55ZM99.7924 38.84C99.4724 38.84 99.1974 38.73 98.9674 38.51C98.7474 38.29 98.6374 38.015 98.6374 37.685C98.6374 37.375 98.7474 37.11 98.9674 36.89C99.1974 36.66 99.4724 36.545 99.7924 36.545C100.112 36.545 100.382 36.66 100.602 36.89C100.822 37.11 100.932 37.375 100.932 37.685C100.932 38.015 100.822 38.29 100.602 38.51C100.382 38.73 100.112 38.84 99.7924 38.84ZM98.8174 40.55C98.8174 40.5 98.7774 40.46 98.6974 40.43C98.6274 40.4 98.5574 40.385 98.4874 40.385V40.1H101.067V40.385C100.997 40.385 100.922 40.4 100.842 40.43C100.772 40.46 100.737 40.5 100.737 40.55V46.55C100.737 46.6 100.772 46.64 100.842 46.67C100.922 46.7 100.997 46.715 101.067 46.715V47H98.4874V46.715C98.5574 46.715 98.6274 46.7 98.6974 46.67C98.7774 46.64 98.8174 46.6 98.8174 46.55V40.55ZM107.277 39.65V42.065H106.992C106.992 41.995 106.977 41.915 106.947 41.825C106.917 41.735 106.877 41.685 106.827 41.675H106.722C106.412 41.675 106.097 41.765 105.777 41.945C105.467 42.115 105.207 42.345 104.997 42.635C104.797 42.915 104.697 43.215 104.697 43.535V46.55C104.697 46.6 104.732 46.64 104.802 46.67C104.882 46.7 104.957 46.715 105.027 46.715V47H102.507V46.715C102.577 46.715 102.647 46.7 102.717 46.67C102.797 46.64 102.837 46.6 102.837 46.55V40.55C102.837 40.5 102.797 40.46 102.717 40.43C102.647 40.4 102.577 40.385 102.507 40.385V40.1H104.697V40.745C104.967 40.495 105.292 40.295 105.672 40.145C106.052 39.995 106.432 39.92 106.812 39.92H106.827H106.842C106.892 39.92 106.927 39.89 106.947 39.83C106.977 39.77 106.992 39.71 106.992 39.65H107.277ZM112.214 39.8V42.08H111.929C111.929 42.01 111.914 41.945 111.884 41.885C111.854 41.815 111.814 41.78 111.764 41.78H110.789V46.55C110.789 46.6 110.824 46.64 110.894 46.67C110.964 46.7 111.034 46.715 111.104 46.715V47H108.659V46.715C108.729 46.715 108.799 46.7 108.869 46.67C108.939 46.64 108.974 46.6 108.974 46.55V41.78H108.254C108.204 41.78 108.164 41.815 108.134 41.885C108.104 41.945 108.089 42.01 108.089 42.08H107.804V39.8H108.089C108.089 39.87 108.104 39.94 108.134 40.01C108.164 40.07 108.204 40.1 108.254 40.1H108.974V38.345C108.974 38.295 108.939 38.255 108.869 38.225C108.799 38.195 108.729 38.18 108.659 38.18V37.895H111.104V38.18C111.034 38.18 110.964 38.195 110.894 38.225C110.824 38.255 110.789 38.295 110.789 38.345V40.1H111.764C111.814 40.1 111.854 40.07 111.884 40.01C111.914 39.94 111.929 39.87 111.929 39.8H112.214ZM121.394 40.385C121.184 40.385 121.054 40.425 121.004 40.505L115.754 50.84C115.744 50.85 115.739 50.865 115.739 50.885C115.739 50.945 115.774 50.995 115.844 51.035C115.914 51.075 116.004 51.095 116.114 51.095V51.38H113.294V51.095C113.504 51.095 113.634 51.055 113.684 50.975L116.129 46.16L113.054 40.49C113.014 40.42 112.884 40.385 112.664 40.385V40.1H115.439V40.385C115.319 40.385 115.244 40.41 115.214 40.46C115.194 40.51 115.204 40.565 115.244 40.625L117.149 44.15L118.934 40.64C118.944 40.63 118.949 40.615 118.949 40.595C118.949 40.535 118.914 40.485 118.844 40.445C118.774 40.405 118.684 40.385 118.574 40.385V40.1H121.394V40.385ZM129.342 47.225C128.832 47.225 128.337 47.12 127.857 46.91C127.387 46.7 126.912 46.4 126.432 46.01C126.412 45.99 126.387 45.98 126.357 45.98C126.277 45.98 126.192 46.025 126.102 46.115L125.892 45.935L127.392 44.225L127.602 44.42C127.562 44.47 127.527 44.53 127.497 44.6C127.477 44.67 127.487 44.725 127.527 44.765C127.857 45.065 128.162 45.29 128.442 45.44C128.732 45.58 129.032 45.65 129.342 45.65C130.112 45.65 130.497 45.395 130.497 44.885C130.497 44.655 130.377 44.48 130.137 44.36C129.907 44.23 129.517 44.09 128.967 43.94C128.257 43.75 127.742 43.505 127.422 43.205C127.102 42.895 126.942 42.475 126.942 41.945C126.942 41.315 127.147 40.805 127.557 40.415C127.967 40.015 128.527 39.815 129.237 39.815C129.597 39.815 129.922 39.87 130.212 39.98C130.502 40.09 130.852 40.285 131.262 40.565C131.272 40.575 131.292 40.58 131.322 40.58C131.372 40.58 131.422 40.565 131.472 40.535C131.522 40.505 131.557 40.475 131.577 40.445L131.802 40.64L130.452 42.17L130.242 41.99C130.282 41.95 130.307 41.9 130.317 41.84C130.337 41.77 130.327 41.715 130.287 41.675C130.107 41.535 129.932 41.43 129.762 41.36C129.602 41.29 129.422 41.255 129.222 41.255C129.012 41.255 128.847 41.295 128.727 41.375C128.607 41.455 128.547 41.575 128.547 41.735C128.547 41.865 128.582 41.97 128.652 42.05C128.722 42.13 128.847 42.21 129.027 42.29C129.217 42.37 129.502 42.47 129.882 42.59C130.582 42.8 131.132 43.095 131.532 43.475C131.932 43.845 132.132 44.305 132.132 44.855C132.132 45.665 131.877 46.265 131.367 46.655C130.857 47.035 130.182 47.225 129.342 47.225ZM136.784 47.18C136.044 47.18 135.389 47.025 134.819 46.715C134.259 46.395 133.819 45.96 133.499 45.41C133.189 44.86 133.034 44.24 133.034 43.55C133.034 42.87 133.189 42.25 133.499 41.69C133.819 41.13 134.264 40.69 134.834 40.37C135.404 40.04 136.054 39.875 136.784 39.875C137.484 39.875 138.119 40.035 138.689 40.355C139.259 40.665 139.709 41.1 140.039 41.66C140.369 42.21 140.534 42.84 140.534 43.55C140.534 44.17 140.384 44.76 140.084 45.32C139.794 45.87 139.364 46.32 138.794 46.67C138.224 47.01 137.554 47.18 136.784 47.18ZM136.784 45.455C137.374 45.455 137.849 45.285 138.209 44.945C138.579 44.595 138.764 44.145 138.764 43.595C138.764 43.025 138.579 42.555 138.209 42.185C137.849 41.815 137.374 41.63 136.784 41.63C136.234 41.63 135.774 41.815 135.404 42.185C135.034 42.545 134.849 43 134.849 43.55C134.849 44.13 135.034 44.595 135.404 44.945C135.774 45.285 136.234 45.455 136.784 45.455ZM145.174 47.315C144.534 47.315 143.939 47.155 143.389 46.835C142.839 46.515 142.399 46.08 142.069 45.53C141.749 44.98 141.589 44.38 141.589 43.73C141.589 42.96 141.749 42.285 142.069 41.705C142.399 41.115 142.839 40.665 143.389 40.355C143.939 40.035 144.544 39.875 145.204 39.875C145.674 39.875 146.074 39.93 146.404 40.04C146.744 40.15 147.014 40.285 147.214 40.445C147.424 40.595 147.684 40.81 147.994 41.09C148.014 41.11 148.039 41.12 148.069 41.12C148.109 41.12 148.154 41.105 148.204 41.075C148.264 41.045 148.309 41.015 148.339 40.985L148.534 41.195L146.914 42.695L146.719 42.485C146.769 42.445 146.809 42.39 146.839 42.32C146.879 42.24 146.884 42.18 146.854 42.14C146.494 41.7 145.999 41.48 145.369 41.48C144.799 41.48 144.319 41.67 143.929 42.05C143.549 42.43 143.359 42.925 143.359 43.535C143.359 44.165 143.544 44.67 143.914 45.05C144.284 45.43 144.769 45.62 145.369 45.62C145.669 45.62 145.914 45.585 146.104 45.515C146.294 45.435 146.509 45.29 146.749 45.08C146.769 45.06 146.779 45.035 146.779 45.005C146.779 44.945 146.744 44.88 146.674 44.81L146.854 44.585L148.474 45.935L148.294 46.145C148.134 46.055 148.024 46.04 147.964 46.1C147.594 46.51 147.204 46.815 146.794 47.015C146.394 47.215 145.854 47.315 145.174 47.315ZM150.959 38.84C150.639 38.84 150.364 38.73 150.134 38.51C149.914 38.29 149.804 38.015 149.804 37.685C149.804 37.375 149.914 37.11 150.134 36.89C150.364 36.66 150.639 36.545 150.959 36.545C151.279 36.545 151.549 36.66 151.769 36.89C151.989 37.11 152.099 37.375 152.099 37.685C152.099 38.015 151.989 38.29 151.769 38.51C151.549 38.73 151.279 38.84 150.959 38.84ZM149.984 40.55C149.984 40.5 149.944 40.46 149.864 40.43C149.794 40.4 149.724 40.385 149.654 40.385V40.1H152.234V40.385C152.164 40.385 152.089 40.4 152.009 40.43C151.939 40.46 151.904 40.5 151.904 40.55V46.55C151.904 46.6 151.939 46.64 152.009 46.67C152.089 46.7 152.164 46.715 152.234 46.715V47H149.654V46.715C149.724 46.715 149.794 46.7 149.864 46.67C149.944 46.64 149.984 46.6 149.984 46.55V40.55ZM161.939 40.385C161.869 40.385 161.794 40.4 161.714 40.43C161.644 40.46 161.609 40.5 161.609 40.55V46.55C161.609 46.6 161.644 46.64 161.714 46.67C161.794 46.7 161.869 46.715 161.939 46.715V47H159.719V46.175C159.089 46.855 158.294 47.195 157.334 47.195C156.604 47.195 155.959 47.05 155.399 46.76C154.849 46.46 154.419 46.035 154.109 45.485C153.809 44.935 153.659 44.295 153.659 43.565C153.659 42.855 153.824 42.225 154.154 41.675C154.494 41.115 154.944 40.685 155.504 40.385C156.064 40.075 156.674 39.92 157.334 39.92C158.294 39.92 159.089 40.29 159.719 41.03V40.1H161.939V40.385ZM157.559 45.605C157.969 45.605 158.334 45.515 158.654 45.335C158.984 45.145 159.239 44.9 159.419 44.6C159.599 44.29 159.689 43.96 159.689 43.61C159.689 43.01 159.489 42.515 159.089 42.125C158.699 41.735 158.189 41.54 157.559 41.54C156.949 41.54 156.444 41.73 156.044 42.11C155.654 42.49 155.459 42.975 155.459 43.565C155.459 44.185 155.659 44.68 156.059 45.05C156.469 45.42 156.969 45.605 157.559 45.605ZM163.661 36.2C163.661 36.15 163.621 36.11 163.541 36.08C163.471 36.05 163.396 36.035 163.316 36.035V35.75H165.956V36.035C165.876 36.035 165.796 36.05 165.716 36.08C165.646 36.11 165.611 36.15 165.611 36.2V46.55C165.611 46.6 165.646 46.64 165.716 46.67C165.796 46.7 165.876 46.715 165.956 46.715V47H163.316V46.715C163.396 46.715 163.471 46.7 163.541 46.67C163.621 46.64 163.661 46.6 163.661 46.55V36.2ZM182.679 46.55C182.679 46.6 182.714 46.64 182.784 46.67C182.864 46.7 182.944 46.715 183.024 46.715V47H180.384V46.715C180.464 46.715 180.539 46.7 180.609 46.67C180.689 46.64 180.729 46.6 180.729 46.55V43.43C180.729 42.19 180.319 41.57 179.499 41.57C179.099 41.57 178.789 41.735 178.569 42.065C178.349 42.395 178.239 42.89 178.239 43.55V46.55C178.239 46.6 178.274 46.64 178.344 46.67C178.424 46.7 178.504 46.715 178.584 46.715V47H175.959V46.715C176.039 46.715 176.114 46.7 176.184 46.67C176.264 46.64 176.304 46.6 176.304 46.55V43.43C176.304 42.88 176.219 42.435 176.049 42.095C175.879 41.745 175.564 41.57 175.104 41.57C174.744 41.57 174.454 41.705 174.234 41.975C174.024 42.235 173.899 42.63 173.859 43.16V46.55C173.859 46.6 173.899 46.64 173.979 46.67C174.059 46.7 174.134 46.715 174.204 46.715V47H171.534V46.715C171.604 46.715 171.679 46.7 171.759 46.67C171.839 46.64 171.879 46.6 171.879 46.55V40.55C171.879 40.5 171.839 40.46 171.759 40.43C171.689 40.4 171.619 40.385 171.549 40.385V40.1H173.859V40.505C174.259 40.135 174.769 39.95 175.389 39.95C175.949 39.95 176.429 40.06 176.829 40.28C177.239 40.49 177.559 40.785 177.789 41.165C177.969 40.795 178.244 40.5 178.614 40.28C178.994 40.06 179.419 39.95 179.889 39.95C180.829 39.95 181.529 40.23 181.989 40.79C182.449 41.35 182.679 42.075 182.679 42.965V46.55ZM187.905 39.785C188.675 39.785 189.34 39.955 189.9 40.295C190.46 40.625 190.885 41.075 191.175 41.645C191.465 42.215 191.61 42.845 191.61 43.535C191.61 43.745 191.595 43.955 191.565 44.165H186.075C186.115 44.645 186.325 45.02 186.705 45.29C187.085 45.56 187.54 45.695 188.07 45.695C188.43 45.695 188.73 45.645 188.97 45.545C189.22 45.445 189.44 45.295 189.63 45.095C189.65 45.055 189.66 45.03 189.66 45.02C189.66 44.98 189.645 44.94 189.615 44.9C189.585 44.85 189.555 44.815 189.525 44.795L189.705 44.57L191.37 45.875L191.205 46.1C191.055 46.01 190.95 46 190.89 46.07C190.19 46.91 189.25 47.33 188.07 47.33C187.31 47.33 186.64 47.165 186.06 46.835C185.48 46.495 185.03 46.045 184.71 45.485C184.4 44.915 184.245 44.285 184.245 43.595C184.245 42.865 184.4 42.21 184.71 41.63C185.02 41.05 185.45 40.6 186 40.28C186.56 39.95 187.195 39.785 187.905 39.785ZM189.81 42.77C189.77 42.36 189.56 42.015 189.18 41.735C188.81 41.445 188.39 41.3 187.92 41.3C187.45 41.3 187.045 41.445 186.705 41.735C186.365 42.015 186.16 42.36 186.09 42.77H189.81ZM200.38 46.55C200.38 46.6 200.415 46.64 200.485 46.67C200.565 46.7 200.64 46.715 200.71 46.715V47H198.565V46.475C197.965 46.965 197.25 47.21 196.42 47.21C195.68 47.21 195.02 47.06 194.44 46.76C193.86 46.46 193.405 46.035 193.075 45.485C192.745 44.935 192.58 44.3 192.58 43.58C192.58 42.85 192.745 42.205 193.075 41.645C193.415 41.075 193.875 40.635 194.455 40.325C195.045 40.005 195.7 39.845 196.42 39.845C197.25 39.845 197.965 40.08 198.565 40.55V36.2C198.565 36.15 198.53 36.11 198.46 36.08C198.39 36.05 198.32 36.035 198.25 36.035V35.75H200.695V36.035C200.625 36.035 200.555 36.05 200.485 36.08C200.415 36.11 200.38 36.15 200.38 36.2V46.55ZM196.51 45.605C196.9 45.605 197.255 45.515 197.575 45.335C197.905 45.155 198.16 44.915 198.34 44.615C198.53 44.305 198.625 43.98 198.625 43.64C198.625 43.03 198.425 42.53 198.025 42.14C197.635 41.74 197.13 41.54 196.51 41.54C195.89 41.54 195.38 41.735 194.98 42.125C194.59 42.505 194.395 43 194.395 43.61C194.395 44.22 194.595 44.705 194.995 45.065C195.405 45.425 195.91 45.605 196.51 45.605ZM203.664 38.84C203.344 38.84 203.069 38.73 202.839 38.51C202.619 38.29 202.509 38.015 202.509 37.685C202.509 37.375 202.619 37.11 202.839 36.89C203.069 36.66 203.344 36.545 203.664 36.545C203.984 36.545 204.254 36.66 204.474 36.89C204.694 37.11 204.804 37.375 204.804 37.685C204.804 38.015 204.694 38.29 204.474 38.51C204.254 38.73 203.984 38.84 203.664 38.84ZM202.689 40.55C202.689 40.5 202.649 40.46 202.569 40.43C202.499 40.4 202.429 40.385 202.359 40.385V40.1H204.939V40.385C204.869 40.385 204.794 40.4 204.714 40.43C204.644 40.46 204.609 40.5 204.609 40.55V46.55C204.609 46.6 204.644 46.64 204.714 46.67C204.794 46.7 204.869 46.715 204.939 46.715V47H202.359V46.715C202.429 46.715 202.499 46.7 202.569 46.67C202.649 46.64 202.689 46.6 202.689 46.55V40.55ZM214.644 40.385C214.574 40.385 214.499 40.4 214.419 40.43C214.349 40.46 214.314 40.5 214.314 40.55V46.55C214.314 46.6 214.349 46.64 214.419 46.67C214.499 46.7 214.574 46.715 214.644 46.715V47H212.424V46.175C211.794 46.855 210.999 47.195 210.039 47.195C209.309 47.195 208.664 47.05 208.104 46.76C207.554 46.46 207.124 46.035 206.814 45.485C206.514 44.935 206.364 44.295 206.364 43.565C206.364 42.855 206.529 42.225 206.859 41.675C207.199 41.115 207.649 40.685 208.209 40.385C208.769 40.075 209.379 39.92 210.039 39.92C210.999 39.92 211.794 40.29 212.424 41.03V40.1H214.644V40.385ZM210.264 45.605C210.674 45.605 211.039 45.515 211.359 45.335C211.689 45.145 211.944 44.9 212.124 44.6C212.304 44.29 212.394 43.96 212.394 43.61C212.394 43.01 212.194 42.515 211.794 42.125C211.404 41.735 210.894 41.54 210.264 41.54C209.654 41.54 209.149 41.73 208.749 42.11C208.359 42.49 208.164 42.975 208.164 43.565C208.164 44.185 208.364 44.68 208.764 45.05C209.174 45.42 209.674 45.605 210.264 45.605Z" fill="white"/>
</svg>
