<svg width="117px" height="117px" viewBox="0 0 48.00 48.00" xmlns="http://www.w3.org/2000/svg" fill="#55b9ff" stroke="#55b9ff" transform="rotate(-45)"><g id="SVGRepo_bgCarrier" stroke-width="0" transform="translate(24,24), scale(0)"></g><g id="SVGRepo_tracerCarrier" stroke-linecap="round" stroke-linejoin="round" stroke="#CCCCCC" stroke-width="0.192"></g><g id="SVGRepo_iconCarrier"> <title>explore-solid</title> <g id="Layer_2" data-name="Layer 2"> <g id="invisible_box" data-name="invisible box"> <rect width="48" height="48" fill="none"></rect> </g> <g id="icons_Q2" data-name="icons Q2"> <path d="M24,2A22,22,0,1,0,46,24,21.9,21.9,0,0,0,24,2ZM34.7,14.7,28,28,14.7,34.7a1.1,1.1,0,0,1-1.4-1.4L20,20l13.3-6.7A1.1,1.1,0,0,1,34.7,14.7ZM24,22a2,2,0,1,0,2,2A2,2,0,0,0,24,22Z"></path> <path d="M24,22a2,2,0,1,0,2,2A2,2,0,0,0,24,22Zm0,0a2,2,0,1,0,2,2A2,2,0,0,0,24,22Z"></path> </g> </g> </g></svg>